<?xml version="1.0" encoding="UTF-8"?>
<svg version="1.1" xmlns="http://www.w3.org/2000/svg" width="1024" height="1024">
<path d="M0 0 C337.92 0 675.84 0 1024 0 C1024 337.92 1024 675.84 1024 1024 C686.08 1024 348.16 1024 0 1024 C0 686.08 0 348.16 0 0 Z " fill="#593D25" transform="translate(0,0)"/>
<path d="M0 0 C18.83864528 15.12336721 34.20518413 37.74807826 38.8125 61.75 C38.8125 62.74 38.8125 63.73 38.8125 64.75 C40.070625 64.585 41.32875 64.42 42.625 64.25 C69.55763996 61.65592136 94.30368161 66.86582522 115.625 84.01171875 C118.11027837 86.18254879 120.47740612 88.41898845 122.8125 90.75 C123.85664062 91.77673828 123.85664062 91.77673828 124.921875 92.82421875 C141.70800594 110.42363122 146.71317163 133.24545419 146.1640625 156.8515625 C145.60894366 169.25187895 142.085842 180.53334223 136.8125 191.75 C137.62332031 192.35585938 138.43414063 192.96171875 139.26953125 193.5859375 C166.46022093 214.07196031 183.86158653 238.07376723 189.21484375 272.32421875 C192.66843412 300.9464403 184.53709366 328.30206998 166.97265625 351.02734375 C166.25980469 351.92582031 165.54695313 352.82429688 164.8125 353.75 C164.27496094 354.43191406 163.73742187 355.11382813 163.18359375 355.81640625 C151.54189247 369.99580808 134.53707571 380.87218927 117.375 387.0625 C116.7444873 387.29275879 116.11397461 387.52301758 115.46435547 387.76025391 C103.06070837 391.97100633 90.84997315 393.24595601 77.86157227 393.14111328 C75.51193586 393.12508144 73.1640368 393.14103601 70.81445312 393.16015625 C53.74315231 393.18351447 36.77597495 390.95931129 21.4375 383.0625 C16.39265431 380.30651544 16.39265431 380.30651544 10.8125 379.75 C8.98573523 381.05444409 8.98573523 381.05444409 7.140625 382.79296875 C6.43341309 383.43250488 5.72620117 384.07204102 4.99755859 384.73095703 C4.27648926 385.39724121 3.55541992 386.06352539 2.8125 386.75 C2.14686035 387.36085449 1.4812207 387.97170898 0.79541016 388.60107422 C-2.00546121 391.19035167 -4.78428219 393.79670395 -7.51342773 396.46166992 C-10.99345894 399.84613963 -14.36136569 402.96963171 -18.40234375 405.671875 C-23.82573238 409.54371164 -27.53292072 413.24340084 -28.79199219 419.98828125 C-29.49571643 428.84445208 -28.96075585 437.67613736 -28.45605469 446.53173828 C-28.00602004 454.69240501 -27.93581806 462.86261003 -27.80310059 471.03326416 C-27.74946022 474.03015764 -27.68214804 477.02643856 -27.61035156 480.02294922 C-27.31914554 492.31409075 -27.14019419 504.60176537 -27.05649757 516.89578629 C-27.02166322 521.74766629 -26.9768322 526.59946869 -26.93281841 531.45127296 C-26.89090605 536.2330787 -26.86615754 541.01459835 -26.85338211 545.79656506 C-26.84117881 548.80676607 -26.81256642 551.81665942 -26.77981186 554.82670021 C-26.76794085 556.22955027 -26.76283193 557.63247726 -26.76517105 559.0353756 C-26.77693968 568.72997407 -25.86613009 577.15145802 -19.90625 585.09765625 C-16.72617769 588.20005438 -13.59895354 590.13971004 -9.6875 592.1875 C-8.93573486 592.59508545 -8.18396973 593.0026709 -7.40942383 593.42260742 C-2.22288281 596.21088942 3.02235104 598.88308312 8.26953125 601.5546875 C9.57813696 602.22336526 10.88673066 602.89206654 12.1953125 603.56079102 C14.78136379 604.881743 17.37443396 606.18730806 19.97265625 607.48413086 C21.18638254 608.09973378 22.39993194 608.71568564 23.61328125 609.33203125 C24.68747314 609.87061768 25.76166504 610.4092041 26.8684082 610.96411133 C30.07767311 612.91085424 32.38329238 614.89079534 34.8125 617.75 C35.43867406 621.69489659 35.7589094 624.08028912 33.78515625 627.5625 C31.65036933 630.26180504 30.09764401 631.654952 26.8125 632.75 C24.28996104 632.84978448 21.79495826 632.89344807 19.27224731 632.89044189 C18.49733692 632.89341302 17.72242653 632.89638414 16.924034 632.8994453 C14.31929957 632.90813863 11.71461108 632.90964107 9.10986328 632.91113281 C7.24563498 632.91576049 5.38140764 632.92078508 3.5171814 632.92617798 C-1.55306255 632.93930774 -6.62329325 632.94574792 -11.69355154 632.95018864 C-14.85970965 632.95311808 -18.02586413 632.95722262 -21.19202042 632.96169281 C-31.09386296 632.97536848 -40.99569722 632.98503513 -50.89754856 632.9888947 C-62.33610308 632.99337752 -73.77453823 633.01093554 -85.21305645 633.0398953 C-94.04964248 633.06149277 -102.88619489 633.07159793 -111.72280705 633.07293582 C-117.00302473 633.07398512 -122.28313021 633.07991964 -127.56332016 633.09775543 C-132.52912909 633.11420294 -137.49474106 633.11640779 -142.46056747 633.10761642 C-144.28389004 633.1068443 -146.10722305 633.11121178 -147.9305191 633.12107468 C-150.41834213 633.13374387 -152.90546226 633.12794507 -155.39328003 633.11749268 C-156.11594964 633.12554908 -156.83861925 633.13360548 -157.58318794 633.14190602 C-161.95816031 633.0988724 -164.71910059 632.45048432 -168.1875 629.75 C-170.20221597 626.72792605 -170.52469034 625.83273301 -170.625 622.375 C-170.66496094 621.62476563 -170.70492187 620.87453125 -170.74609375 620.1015625 C-169.90076345 616.54289928 -167.91313384 615.15432385 -165.1875 612.75 C-162.61619198 611.16587651 -159.93637925 609.86703286 -157.2109375 608.5703125 C-156.06209579 608.00653397 -156.06209579 608.00653397 -154.89004517 607.43136597 C-152.45213368 606.23618498 -150.00802468 605.05451507 -147.5625 603.875 C-126.48915639 594.8396402 -126.48915639 594.8396402 -111.1875 578.75 C-108.87125447 571.38840228 -108.60406911 564.00366769 -108.23730469 556.33642578 C-108.16236137 554.88302994 -108.0871903 553.42964584 -108.0118103 551.97627258 C-107.33961805 538.66018191 -106.88061388 525.3351074 -106.47932053 512.00839424 C-106.20682481 503.07959147 -105.8697442 494.16320677 -105.3671875 485.24414062 C-101.00083307 441.46522863 -101.00083307 441.46522863 -117.02826309 402.72951317 C-124.56361788 394.86014067 -133.40080792 387.64334604 -143.1875 382.75 C-143.1875 382.09 -143.1875 381.43 -143.1875 380.75 C-146.69077977 379.51781194 -148.58158069 379.97348783 -152 381.3125 C-152.97195313 381.68375 -153.94390625 382.055 -154.9453125 382.4375 C-157.20024465 383.35034 -159.44446637 384.28990502 -161.6796875 385.25 C-162.29223389 385.50837646 -162.90478027 385.76675293 -163.53588867 386.03295898 C-165.27350766 386.76948061 -167.00231196 387.52669862 -168.73046875 388.28515625 C-182.00896337 393.10095405 -195.9344761 393.32232761 -209.875 393.25 C-210.80159424 393.24790527 -211.72818848 393.24581055 -212.68286133 393.24365234 C-226.36587039 393.17984006 -239.25977589 392.65070587 -252.1875 387.75 C-253.33532959 387.33186035 -253.33532959 387.33186035 -254.50634766 386.90527344 C-282.51939815 376.42431856 -305.08225234 355.21466582 -317.9375 328.25 C-328.62169213 303.42813949 -330.13938356 273.44175825 -320.45703125 248 C-314.24497696 232.82027563 -305.60043895 220.41807172 -294.1875 208.75 C-293.15302734 207.64011719 -293.15302734 207.64011719 -292.09765625 206.5078125 C-287.04338299 201.19514081 -281.38709006 196.67431963 -275.1875 192.75 C-274.5275 192.75 -273.8675 192.75 -273.1875 192.75 C-273.66960937 191.56664062 -274.15171875 190.38328125 -274.6484375 189.1640625 C-275.28690735 187.56788787 -275.92490271 185.97152338 -276.5625 184.375 C-277.03816406 183.21291016 -277.03816406 183.21291016 -277.5234375 182.02734375 C-285.63754626 161.57302792 -285.10233218 135.79268304 -276.45703125 115.625 C-272.53968506 107.00102898 -267.65398443 99.71475806 -261.1875 92.75 C-260.4553125 91.94949219 -259.723125 91.14898437 -258.96875 90.32421875 C-243.90776603 74.54730773 -222.35369676 64.39743259 -200.4609375 63.6171875 C-191.98866401 63.634166 -183.6297294 63.94047115 -175.1875 64.75 C-175.02894531 64.10675781 -174.87039063 63.46351563 -174.70703125 62.80078125 C-167.11638419 33.40275037 -149.54475346 7.40150405 -123.1875 -8.25 C-84.49138531 -30.18306042 -35.38869299 -27.36776609 0 0 Z " fill="#6C9B42" transform="translate(580.1875,207.25)"/>
<path d="M0 0 C4.45842377 2.29618392 6.58052626 4.91473254 9.1328125 9.3125 C9.64062119 12.47147942 9.64062119 12.47147942 9.65179443 15.91842651 C9.66570724 17.23086838 9.67962006 18.54331024 9.69395447 19.89552307 C9.68924208 21.33773929 9.6841482 22.7799543 9.67871094 24.22216797 C9.68745069 25.75013784 9.69793788 27.27809857 9.71003723 28.80604553 C9.73786889 32.94406102 9.74130255 37.08177746 9.74031734 41.21987295 C9.74344889 45.54810864 9.76907214 49.87621012 9.79229736 54.20437622 C9.83284238 62.39588787 9.85319454 70.58731995 9.86627126 78.77891648 C9.88214638 88.10663994 9.92056417 97.43422808 9.96086454 106.76187301 C10.04324298 125.94537254 10.09734793 145.12885926 10.1328125 164.3125 C10.71065916 163.73327065 10.71065916 163.73327065 11.30017948 163.14233971 C20.69643285 153.72395187 30.09552312 144.30840322 39.49763584 134.89586449 C44.044436 130.34385237 48.59030394 125.79091744 53.1340332 121.23583984 C57.5214309 116.83755329 61.91128789 112.44173507 66.30283928 108.04759598 C67.97538465 106.37320717 69.64705162 104.69794044 71.31781197 103.02177048 C73.66339166 100.66890076 76.01211408 98.31921084 78.36157227 95.97021484 C79.04706146 95.28113037 79.73255066 94.5920459 80.43881226 93.88208008 C91.65442492 82.6902199 91.65442492 82.6902199 95.9765625 81.5859375 C102.17574088 81.82296491 106.16339544 82.48190768 111.1328125 86.3125 C113.97893774 89.6176777 114.84856524 92.82751364 114.67498875 97.22175694 C113.99633845 99.83877201 112.90802041 101.09127226 111.08299255 103.07688904 C110.44563612 103.77346052 109.80827969 104.47003201 109.15160942 105.18771172 C105.91421704 108.59507445 102.63326037 111.95118797 99.30493164 115.26977539 C98.55598129 116.02047806 97.80703094 116.77118073 97.03538513 117.54463196 C94.58207272 120.00231187 92.1251604 122.45635527 89.66796875 124.91015625 C87.94821319 126.63058631 86.22860603 128.35116472 84.50914001 130.07188416 C80.91404753 133.6684467 77.31716354 137.26320528 73.71899414 140.85668945 C69.12154381 145.44844294 64.52859786 150.0446716 59.93698978 154.64226627 C56.38964462 158.19323571 52.83990785 161.74180666 49.28945732 165.28967094 C47.59555225 166.98291191 45.90238147 168.67688779 44.2099781 170.37162971 C41.8391018 172.74506325 39.46501291 175.11523776 37.09008789 177.48461914 C36.40048981 178.17624146 35.71089172 178.86786377 35.00039673 179.58044434 C31.11713186 183.44704705 27.13471931 187.13473398 22.96927547 190.69634151 C19.87518027 193.41926503 17.01466448 196.36889405 14.1328125 199.3125 C13.44926225 199.8632979 12.76571199 200.4140958 12.0614481 200.98158455 C9.42661506 204.16599794 9.63333466 206.1793049 9.63401794 210.28292847 C9.62863339 210.98448378 9.62324884 211.68603909 9.61770111 212.40885365 C9.60442616 214.75974088 9.61957757 217.10958466 9.63452148 219.46044922 C9.63069854 221.14586873 9.62507972 222.83128499 9.61779785 224.51669312 C9.60583949 228.14646589 9.60634259 231.77594944 9.61639214 235.40572739 C9.63193986 241.14584532 9.61828365 246.88566562 9.60035706 252.62576294 C9.56951931 263.77649262 9.56803638 274.92713168 9.57000732 286.07789612 C9.57139957 300.26429859 9.56105875 314.45063118 9.5214296 328.63698208 C9.50649312 334.34223796 9.50676842 340.04723086 9.51890743 345.75249076 C9.52361925 349.30369253 9.51609705 352.85479374 9.50536346 356.40597916 C9.50295785 358.05149661 9.50569082 359.69703092 9.51397133 361.3425293 C9.52460989 363.59131958 9.51682839 365.83933854 9.50462341 368.08810425 C9.50520972 369.34576536 9.50579603 370.60342648 9.50640011 371.89919853 C8.94877393 376.99397743 7.31399161 380.21774863 3.5703125 383.6875 C-1.03759269 385.86578245 -4.86076021 386.38643393 -9.8671875 385.3125 C-13.29344204 383.2839594 -16.07422762 380.89841977 -17.8671875 377.3125 C-17.96518046 375.08357186 -17.99624778 372.8516245 -17.99848938 370.62054443 C-18.00166295 369.57690007 -18.00166295 369.57690007 -18.00490063 368.51217198 C-18.01091572 366.16923186 -18.00989941 363.82634537 -18.0090332 361.48339844 C-18.01206374 359.80812997 -18.0155849 358.13286232 -18.01956177 356.45759583 C-18.02745987 352.84370583 -18.03259913 349.22982575 -18.03585243 345.61592865 C-18.04175501 339.90124988 -18.05828862 334.18663364 -18.07719421 328.47198486 C-18.0835319 326.5166283 -18.08985752 324.56127171 -18.09617138 322.60591507 C-18.09933719 321.62654055 -18.102503 320.64716603 -18.10576475 319.6381135 C-18.14786178 306.3302053 -18.18081465 293.0223258 -18.19311523 279.71435547 C-18.20149285 270.74293503 -18.22397369 261.77166889 -18.2624709 252.80032563 C-18.28224414 248.05157232 -18.294632 243.30304974 -18.28963661 238.55425262 C-18.28499349 234.08572869 -18.29877709 229.61764196 -18.32664871 225.14920616 C-18.33356654 223.51015597 -18.33368067 221.87106063 -18.32644844 220.2320118 C-18.31756219 217.99161809 -18.33324786 215.75266683 -18.35493469 213.51239014 C-18.35732305 212.25950573 -18.3597114 211.00662132 -18.36217213 209.71577072 C-19.33225558 203.17843187 -23.90029735 198.98374859 -28.4453125 194.50390625 C-28.97558044 193.97409653 -29.50584839 193.4442868 -30.05218506 192.89842224 C-31.16930094 191.78431024 -32.28882895 190.6726121 -33.41064453 189.56323242 C-35.10372654 187.88831653 -36.78875847 186.20562827 -38.47265625 184.52148438 C-43.51504763 179.49599846 -48.58527923 174.57972821 -53.99902344 169.95141602 C-57.60380411 166.78898886 -60.97603777 163.38800977 -64.3671875 160 C-65.09421875 159.28521484 -65.82125 158.57042969 -66.5703125 157.83398438 C-67.25609375 157.15013672 -67.941875 156.46628906 -68.6484375 155.76171875 C-69.26783203 155.14643311 -69.88722656 154.53114746 -70.52539062 153.8972168 C-71.8671875 152.3125 -71.8671875 152.3125 -71.8671875 150.3125 C-72.8571875 149.9825 -73.8471875 149.6525 -74.8671875 149.3125 C-74.8671875 148.6525 -74.8671875 147.9925 -74.8671875 147.3125 C-75.44597656 147.07144531 -76.02476562 146.83039063 -76.62109375 146.58203125 C-79.29378418 145.07138014 -80.82113304 143.33705921 -82.8046875 141 C-86.38232097 136.86584577 -89.87878145 132.82996777 -94.2421875 129.5 C-96.45298329 127.65767018 -98.08017106 125.95375727 -99.9140625 123.76953125 C-102.69057238 120.55835195 -105.59661414 117.58239442 -108.671875 114.65625 C-109.91710937 113.46322266 -109.91710937 113.46322266 -111.1875 112.24609375 C-112.90295231 110.61195493 -114.62975251 108.98965327 -116.3671875 107.37890625 C-123.31592553 100.65888844 -123.31592553 100.65888844 -124.0078125 95.890625 C-123.85181284 91.92130044 -123.39147824 90.34164888 -120.8671875 87.3125 C-115.8747072 82.81926773 -111.57785253 81.57497826 -104.93115234 81.77319336 C-101.37010092 82.39999516 -100.21554898 83.25346253 -97.62890625 85.73046875 C-96.33883667 86.95588379 -96.33883667 86.95588379 -95.02270508 88.20605469 C-93.96954661 89.24019464 -92.91785461 90.27582898 -91.8671875 91.3125 C-91.22220306 91.94248901 -90.57721863 92.57247803 -89.91268921 93.22155762 C-85.29877745 97.73023343 -80.72052349 102.27339488 -76.15917969 106.83520508 C-73.71828991 109.27387587 -71.26946501 111.70439645 -68.8203125 114.13476562 C-67.27034597 115.68180354 -65.72084905 117.22931212 -64.171875 118.77734375 C-63.43766327 119.50436996 -62.70345154 120.23139618 -61.94699097 120.98045349 C-61.27854156 121.65197952 -60.61009216 122.32350555 -59.92138672 123.01538086 C-59.32977753 123.60556503 -58.73816833 124.19574921 -58.12863159 124.80381775 C-56.8671875 126.3125 -56.8671875 126.3125 -56.8671875 128.3125 C-55.8771875 128.6425 -54.8871875 128.9725 -53.8671875 129.3125 C-53.8671875 129.9725 -53.8671875 130.6325 -53.8671875 131.3125 C-53.2071875 131.3125 -52.5471875 131.3125 -51.8671875 131.3125 C-50.59545898 132.60546875 -50.59545898 132.60546875 -49.05078125 134.5 C-43.70435048 140.78763546 -37.78312713 146.50288468 -31.9296875 152.3125 C-30.75692741 153.48023374 -29.58439952 154.64820074 -28.41210938 155.81640625 C-25.56647061 158.65113234 -22.71771297 161.48268824 -19.8671875 164.3125 C-19.86756453 163.51497031 -19.86794155 162.71744062 -19.86833 161.89574337 C-19.87544981 142.48221735 -19.84952587 123.06899222 -19.7869091 103.6555624 C-19.75742315 94.2673048 -19.73908548 84.87927348 -19.74707031 75.4909668 C-19.75400226 67.30725257 -19.73993756 59.12388859 -19.70075142 50.94026047 C-19.68073651 46.60772525 -19.67117414 42.27573992 -19.68676376 37.94317436 C-19.70111441 33.86268103 -19.6873296 29.78323731 -19.65223503 25.70287895 C-19.6442855 24.20777251 -19.64649631 22.71257102 -19.65979576 21.21750259 C-19.76311154 8.52695869 -19.76311154 8.52695869 -16.06887817 3.99281311 C-11.5262045 -0.42897182 -6.21479229 -2.28829172 0 0 Z " fill="#593B24" transform="translate(516.8671875,404.6875)"/>
<path d="M0 0 C2.21934904 2.21934904 2.80034631 3.77831617 3.1484375 6.87890625 C2.62224232 14.39795842 -2.86196027 20.41813358 -7.9375 25.50390625 C-10.30028998 27.21782399 -12.12941251 27.6361929 -15 28 C-11.09151881 23.30982258 -7.02043854 18.94933947 -2.63671875 14.69921875 C0.2921431 11.65851492 0.11026767 9.48301976 0.0625 5.375 C0.04896484 3.87066406 0.04896484 3.87066406 0.03515625 2.3359375 C0.02355469 1.56507813 0.01195312 0.79421875 0 0 Z " fill="#6DAF48" transform="translate(630,493)"/>
<path d="M0 0 C5.36979423 3.2452962 9.50711014 7.27206641 13.875 11.75 C14.56335938 12.44738281 15.25171875 13.14476562 15.9609375 13.86328125 C17.64529582 15.57103343 19.32477617 17.28329443 21 19 C18 19 18 19 16.33007812 17.63891602 C15.73646484 17.01686279 15.14285156 16.39480957 14.53125 15.75390625 C13.87769531 15.08166016 13.22414063 14.40941406 12.55078125 13.71679688 C11.87402344 13.00587891 11.19726562 12.29496094 10.5 11.5625 C9.1609218 10.16348211 7.81735607 8.7687419 6.46875 7.37890625 C5.87513672 6.7557251 5.28152344 6.13254395 4.66992188 5.49047852 C2.96070774 3.76701828 2.96070774 3.76701828 0 3 C0 2.01 0 1.02 0 0 Z " fill="#6DAB47" transform="translate(465,577)"/>
<path d="M0 0 C0.66 0.33 1.32 0.66 2 1 C-0.61691164 3.67470955 -3.24481708 6.33834481 -5.875 9 C-6.62136719 9.763125 -7.36773438 10.52625 -8.13671875 11.3125 C-8.85214844 12.034375 -9.56757812 12.75625 -10.3046875 13.5 C-11.2944458 14.50546875 -11.2944458 14.50546875 -12.30419922 15.53125 C-14 17 -14 17 -16 17 C-14.88559348 13.65678045 -14.02527657 12.93980381 -11.375 10.75 C-7.36917659 7.35878848 -3.6577926 3.76066802 0 0 Z " fill="#6EB74A" transform="translate(544,590)"/>
<path d="M0 0 C0.66 0.33 1.32 0.66 2 1 C1.401875 1.7425 0.80375 2.485 0.1875 3.25 C-1.93803823 5.84954591 -1.93803823 5.84954591 -3.4375 8.125 C-5.79358257 10.95229908 -8.75009771 12.37504885 -12 14 C-10.41332422 10.09714233 -7.86649519 7.66479018 -4.875 4.75 C-3.96492188 3.85796875 -3.05484375 2.9659375 -2.1171875 2.046875 C-1.41851562 1.37140625 -0.71984375 0.6959375 0 0 Z " fill="#6EB54A" transform="translate(328,291)"/>
<path d="M0 0 C0.33 1.32 0.66 2.64 1 4 C-1.3125 6.0625 -1.3125 6.0625 -4 8 C-4.99 7.67 -5.98 7.34 -7 7 C-4.69 4.69 -2.38 2.38 0 0 Z " fill="#6EB24A" transform="translate(567,568)"/>
<path d="M0 0 C3.4375 0.8125 3.4375 0.8125 7 2 C7.33 2.99 7.66 3.98 8 5 C10.50447516 6.21869929 10.50447516 6.21869929 13 7 C12.01 7.33 11.02 7.66 10 8 C7.51953125 6.6015625 7.51953125 6.6015625 4.8125 4.625 C3.91144531 3.97789062 3.01039063 3.33078125 2.08203125 2.6640625 C1.39496094 2.11492188 0.70789063 1.56578125 0 1 C0 0.67 0 0.34 0 0 Z " fill="#6EB349" transform="translate(300,579)"/>
<path d="M0 0 C3.25543229 0.34879632 4.01873107 1.02133261 6.25 3.5625 C6.8275 4.366875 7.405 5.17125 8 6 C5 6 5 6 3.61328125 4.6875 C2.40885417 3.125 1.20442708 1.5625 0 0 Z " fill="#6DAD48" transform="translate(454,568)"/>
<path d="M0 0 C0.33 1.32 0.66 2.64 1 4 C-0.98 5.32 -2.96 6.64 -5 8 C-3.8141763 4.62496331 -2.72426311 2.35277269 0 0 Z " fill="#6EB149" transform="translate(277,426)"/>
</svg>
