<?xml version="1.0" encoding="UTF-8"?>
<svg version="1.1" xmlns="http://www.w3.org/2000/svg" width="1024" height="1024">
<path d="M0 0 C337.92 0 675.84 0 1024 0 C1024 337.92 1024 675.84 1024 1024 C686.08 1024 348.16 1024 0 1024 C0 686.08 0 348.16 0 0 Z " fill="#121212" transform="translate(0,0)"/>
<path d="M0 0 C1.49992853 -0.00339833 1.49992853 -0.00339833 3.03015864 -0.00686532 C6.37864821 -0.01319215 9.72709716 -0.0123768 13.07559204 -0.0115509 C15.47725985 -0.01454319 17.87892718 -0.01794588 20.28059387 -0.02172852 C26.1258699 -0.02964735 31.97113643 -0.03278284 37.81641673 -0.03334089 C42.56878107 -0.03381655 47.3211421 -0.03587378 52.0735054 -0.03904152 C65.55522735 -0.04784466 79.03694135 -0.05246138 92.51866619 -0.05171105 C93.60814576 -0.05165111 93.60814576 -0.05165111 94.71963501 -0.05158997 C95.44684414 -0.05154909 96.17405326 -0.0515082 96.92329903 -0.05146609 C108.70923778 -0.05105962 120.49514458 -0.06063027 132.28107409 -0.07472833 C144.39051783 -0.08909879 156.499946 -0.09599816 168.60939848 -0.09513456 C175.40484888 -0.09480284 182.20026577 -0.09753891 188.99570847 -0.10831261 C195.38639628 -0.11798965 201.77701333 -0.11807541 208.16770363 -0.11079597 C210.51223288 -0.10974968 212.85676652 -0.11211565 215.20128822 -0.11815643 C218.40372532 -0.12587284 221.60591779 -0.12123371 224.80834961 -0.11352539 C226.19717993 -0.12124074 226.19717993 -0.12124074 227.61406744 -0.12911195 C240.00528969 -0.06328391 249.52357954 3.83971731 258.5663147 12.32511902 C272.34343885 28.02361706 272.47842067 46.84315773 272.43521118 66.60221863 C272.44092123 68.9656303 272.44788794 71.32903923 272.45600891 73.69244385 C272.47388433 80.08088014 272.47278258 86.46917865 272.46706653 92.8576324 C272.4647484 96.85510407 272.46697482 100.85255503 272.47154427 104.85002327 C272.47229269 105.5158572 272.47304111 106.18169113 272.47381221 106.86770185 C272.47534385 108.22079567 272.4768822 109.57388949 272.47842718 110.9269833 C272.49212003 123.58422643 272.48673699 136.24140755 272.47524197 148.89864922 C272.46531069 160.45057577 272.47825411 172.00234212 272.50217616 183.55424397 C272.52662098 195.44925028 272.53616199 207.34418215 272.52952343 219.23921305 C272.52604343 225.9039897 272.52852207 232.5686614 272.54577446 239.23342705 C272.56129466 245.50201355 272.55723152 251.77029518 272.53846931 258.03886986 C272.53479764 260.3308939 272.5378501 262.62294079 272.5483551 264.9149437 C272.63325903 284.98109656 270.33121586 301.96852732 256.03115845 317.13371277 C245.78105961 325.91951178 233.46711746 328.28356929 220.36170959 328.28088379 C219.39386994 328.28456048 218.42603028 328.28823717 217.42886215 328.29202527 C214.18878558 328.30303005 210.94874112 328.30690051 207.70864868 328.31071472 C205.38405761 328.31698181 203.05946753 328.32362882 200.73487854 328.33062744 C193.10317682 328.3516416 185.47147496 328.36202757 177.8397522 328.37199402 C175.20942741 328.3760426 172.57910273 328.38015956 169.94877815 328.3843441 C159.00515123 328.40120897 148.06152637 328.41584335 137.11788845 328.42309284 C134.28127987 328.42500251 131.44467129 328.42692288 128.60806274 328.42887878 C127.90309947 328.42936252 127.1981362 328.42984626 126.47181041 328.43034466 C115.0610382 328.43863866 103.65037102 328.46396732 92.23964464 328.49645946 C80.50647107 328.52959558 68.77335078 328.54754748 57.0401302 328.55073708 C50.45964568 328.55308432 43.87932732 328.56200276 37.29888725 328.58719826 C31.10429126 328.61053367 24.90997018 328.61469003 18.71534157 328.60443687 C16.44869445 328.60394274 14.18203353 328.61022693 11.91542816 328.62399292 C-5.67820977 328.72482035 -19.77809181 327.73340178 -33.18759155 315.03215027 C-47.47806456 299.94183736 -47.4149289 281.99128263 -47.37289429 262.39567566 C-47.37860305 259.99138065 -47.38556926 257.58708836 -47.39369202 255.18280029 C-47.40972789 249.35267736 -47.41173565 243.52267838 -47.40647911 237.69253809 C-47.40242257 232.94988531 -47.40389849 228.20726425 -47.40922737 223.46461296 C-47.40997579 222.78725337 -47.41072422 222.10989378 -47.41149532 221.41200815 C-47.41302694 220.03555906 -47.41456528 218.65910997 -47.41611028 217.28266089 C-47.42980822 204.40226694 -47.42441653 191.52193389 -47.41292507 178.64154135 C-47.40299355 166.88194791 -47.41593673 155.12251183 -47.43985926 143.36294264 C-47.46429516 131.25892081 -47.47384725 119.15497213 -47.46720654 107.05092615 C-47.46372452 100.26710998 -47.46587884 93.48341477 -47.48345757 86.69961739 C-47.49896526 80.31942351 -47.49492837 73.93952935 -47.47615242 67.55934715 C-47.47247729 65.22497742 -47.47554341 62.8905853 -47.48603821 60.55623627 C-47.56309325 41.99231531 -45.9541903 25.38520585 -32.53134155 11.19621277 C-22.79820131 2.22860041 -12.91510984 -0.02149772 0 0 Z " fill="#4E341F" transform="translate(113.96884155273438,351.8662872314453)"/>
<path d="M0 0 C6.82992144 1.00626453 10.0080806 6.90053503 14.01611328 12.13354492 C20.06506719 20.29012032 24.56969777 29.09342035 28.3671875 38.49609375 C28.65561523 39.19637695 28.94404297 39.89666016 29.24121094 40.61816406 C31.51046792 46.65250777 31.83549515 52.21235992 31.7421875 58.62109375 C31.73203613 59.63228271 31.72188477 60.64347168 31.71142578 61.68530273 C31.34243697 79.63846774 26.20127774 95.98643785 15.3671875 110.49609375 C13.81145436 111.93124127 12.25285277 113.36328449 10.69165039 114.79248047 C4.59369902 121.53179293 5.21899101 128.47428275 5.48828125 137.00390625 C5.50510015 138.5814142 5.5178958 140.15896967 5.52687073 141.73654175 C5.56098056 145.85759874 5.6491508 149.97572926 5.74920654 154.09564209 C5.8418358 158.31205667 5.88249711 162.52895158 5.92773438 166.74609375 C6.02380627 174.99742605 6.17708394 183.24639432 6.3671875 191.49609375 C6.77557861 190.90594482 7.18396973 190.3157959 7.60473633 189.70776367 C9.45987036 187.03081817 11.31971981 184.35718277 13.1796875 181.68359375 C13.82228516 180.75482422 14.46488281 179.82605469 15.12695312 178.86914062 C15.74892578 177.97646484 16.37089844 177.08378906 17.01171875 176.1640625 C17.58253174 175.34188232 18.15334473 174.51970215 18.74145508 173.67260742 C20.3671875 171.49609375 20.3671875 171.49609375 22.04910278 169.8215332 C23.80125376 168.05960546 23.79505643 166.94904672 23.921875 164.49609375 C23.97609619 163.70082275 24.03031738 162.90555176 24.08618164 162.08618164 C24.13766357 161.23145264 24.18914551 160.37672363 24.2421875 159.49609375 C25.61494104 143.06338243 28.64910639 129.33674084 39.3671875 116.49609375 C40.47126953 115.14257812 40.47126953 115.14257812 41.59765625 113.76171875 C46.61221771 107.90400094 52.1173312 103.00067036 58.3671875 98.49609375 C59.10066406 97.96242188 59.83414063 97.42875 60.58984375 96.87890625 C73.91406683 88.05703643 92.47621681 83.36102442 108.3671875 84.49609375 C113.8671875 85.99609375 113.8671875 85.99609375 115.3671875 87.49609375 C115.74982127 94.80364843 114.660211 101.47900922 113.1796875 108.62109375 C112.95265137 109.72477295 112.72561523 110.82845215 112.49169922 111.96557617 C107.89383588 133.64416815 99.96627946 151.85630325 80.93798828 164.28027344 C67.66663188 172.40755989 55.08667408 175.0942226 39.67041016 175.68920898 C38.62546387 175.74020752 37.58051758 175.79120605 36.50390625 175.84375 C35.56248779 175.87476807 34.62106934 175.90578613 33.65112305 175.93774414 C31.22289054 176.25240373 31.22289054 176.25240373 30.18896484 178.34472656 C29.91777832 179.05467773 29.6465918 179.76462891 29.3671875 180.49609375 C28.16694156 182.11078359 26.96394154 183.72364487 25.73632812 185.31762695 C21.08389455 191.3814997 16.96240202 197.55989497 13.3671875 204.30859375 C13.00616943 204.97656982 12.64515137 205.6445459 12.27319336 206.33276367 C6.83821407 216.85137265 5.9381479 226.48423782 5.83984375 238.18945312 C5.80697266 239.73149414 5.80697266 239.73149414 5.7734375 241.3046875 C5.76634766 242.23079834 5.75925781 243.15690918 5.75195312 244.11108398 C5.3671875 246.49609375 5.3671875 246.49609375 4.06445312 248.30102539 C1.26376075 250.27303189 -1.33197472 249.79616991 -4.6328125 249.49609375 C-6.6328125 247.49609375 -6.6328125 247.49609375 -6.84057617 245.44335938 C-6.82744385 244.60482422 -6.81431152 243.76628906 -6.80078125 242.90234375 C-6.82878845 229.30134846 -8.50838479 218.66295082 -14.6328125 206.49609375 C-14.9844043 205.79371582 -15.33599609 205.09133789 -15.69824219 204.36767578 C-20.7677038 194.45502698 -26.71339181 184.41551444 -34.6328125 176.49609375 C-36.98116398 176.28879917 -39.33860266 176.18146267 -41.6953125 176.12109375 C-63.56140069 175.09072852 -82.38466227 166.699335 -97.9375 151.19921875 C-111.90132382 135.0077032 -118.80607649 111.98277084 -118.0390625 90.85546875 C-117.6328125 87.49609375 -117.6328125 87.49609375 -115.6328125 85.49609375 C-112.23951428 85.03571501 -108.80367207 85.16386236 -105.3828125 85.18359375 C-103.88524414 85.19205322 -103.88524414 85.19205322 -102.35742188 85.20068359 C-78.82695708 85.5847458 -61.10207704 95.50505401 -44.89038086 111.80957031 C-36.94864438 120.13062553 -29.01257252 130.31958232 -27.5078125 141.93359375 C-27.34925781 143.15046875 -27.19070312 144.36734375 -27.02734375 145.62109375 C-26.50507048 150.75074806 -26.24808072 155.86927125 -26.07421875 161.0234375 C-25.06384364 168.97231779 -20.75634443 174.43039603 -16.0703125 180.68359375 C-14.89971359 182.25846508 -13.73164622 183.835222 -12.56640625 185.4140625 C-11.7938147 186.44696411 -11.7938147 186.44696411 -11.00561523 187.50073242 C-9.67249562 189.43841455 -8.6616045 191.38574194 -7.6328125 193.49609375 C-7.44687432 184.26416847 -7.30501746 175.03289442 -7.21831512 165.79950047 C-7.17668643 161.51124673 -7.12029163 157.22428042 -7.02929688 152.93676758 C-6.94191908 148.79341563 -6.89444584 144.65129609 -6.87379456 140.50709343 C-6.85909225 138.93178861 -6.83038028 137.35654598 -6.78697205 135.78177071 C-6.41339779 125.23079683 -6.41339779 125.23079683 -11.47973633 116.23852539 C-12.86014761 114.98668148 -14.24434792 113.73899945 -15.6328125 112.49609375 C-17.86575352 109.55695473 -19.85655724 106.49529431 -21.8203125 103.37109375 C-22.3356958 102.55358643 -22.8510791 101.7360791 -23.38208008 100.89379883 C-33.19718864 84.80640575 -36.46652759 65.68054789 -32.55639648 47.16040039 C-29.36945203 34.19973278 -23.03233527 22.83058512 -14.6328125 12.49609375 C-13.9819165 11.68567627 -13.9819165 11.68567627 -13.31787109 10.85888672 C-11.92818183 9.15138708 -10.50658726 7.47701862 -9.0703125 5.80859375 C-8.63557617 5.27862793 -8.20083984 4.74866211 -7.75292969 4.20263672 C-5.20193328 1.3467744 -3.83716102 0.52399941 0 0 Z " fill="#72A245" transform="translate(226.6328125,391.50390625)"/>
<path d="M0 0 C9.27628127 7.68019199 16.11747584 19.0513529 17.75366211 31.07446289 C17.92495722 34.06951693 17.96214292 37.02393887 17.91796875 40.0234375 C17.90773682 41.0748291 17.89750488 42.1262207 17.88696289 43.20947266 C17.51646153 56.78472643 12.65913439 67.41595816 3.29296875 77.33203125 C-8.01343226 88.01254221 -21.19010063 92.70178191 -36.64233398 92.56811523 C-50.08151438 92.06917945 -62.97321635 86.30970867 -72.39453125 76.7109375 C-83.23909856 63.82806648 -86.67781133 49.94935296 -85.87109375 33.44189453 C-84.93925695 24.00905521 -80.35314743 15.54508535 -74.64453125 8.1484375 C-73.90203125 7.1171875 -73.15953125 6.0859375 -72.39453125 5.0234375 C-52.94245503 -15.31282401 -22.24031853 -15.5715081 0 0 Z " fill="#568C3C" transform="translate(631.64453125,603.8515625)"/>
<path d="M0 0 C1.09054687 -0.020625 2.18109375 -0.04125 3.3046875 -0.0625 C17.37617219 -0.12982768 28.6548005 4.65698776 39 14.23046875 C48.52984761 24.49490878 53.69861563 38.22675015 53.46679688 52.18701172 C52.66418684 66.66567439 46.6152706 79.94922139 36.25 90.0625 C23.321278 101.02637063 8.2308861 103.29782453 -8.125 102.25 C-20.76735827 100.22469104 -31.71708518 94.05600532 -39.84375 84.15625 C-49.70474169 70.27036375 -51.5052793 55.81638523 -50.125 39.25 C-47.79369547 26.20600876 -38.51198472 14.94841583 -28.125 7.25 C-18.31968152 1.4949672 -11.20517934 0.05187583 0 0 Z " fill="#578D3C" transform="translate(714.125,593.75)"/>
<path d="M0 0 C0.89460937 -0.06251953 1.78921875 -0.12503906 2.7109375 -0.18945312 C9.11717169 -0.34535705 9.11717169 -0.34535705 11.98461914 1.95263672 C13.64046395 4.0661657 14.94159334 6.21711871 16.25 8.5625 C16.7960791 9.48925537 17.3421582 10.41601074 17.90478516 11.37084961 C19.71225636 14.49415379 21.45593657 17.64653914 23.1875 20.8125 C24.36218039 22.94331559 25.53795989 25.07352563 26.71484375 27.203125 C27.28960449 28.24404297 27.86436523 29.28496094 28.45654297 30.35742188 C31.31611241 35.46774417 34.27659338 40.51761066 37.25 45.5625 C41.26260333 44.22496556 41.52181835 42.70240755 43.5 39 C47.41410377 31.87538659 51.63885295 24.96089947 55.9375 18.0625 C56.89994629 16.50486938 56.89994629 16.50486938 57.88183594 14.91577148 C59.63637982 12.10690623 61.43306477 9.33126549 63.25 6.5625 C63.65532959 5.89154297 64.06065918 5.22058594 64.47827148 4.52929688 C66.09971806 2.14135469 67.53611045 0.72395654 70.38305664 0.08007812 C72.93222203 -0.1014406 75.38539249 -0.06058582 77.9375 0.0625 C78.80439453 0.0728125 79.67128906 0.083125 80.56445312 0.09375 C86.94001895 0.25251895 86.94001895 0.25251895 89.25 2.5625 C89.44371155 5.6309087 89.51212082 8.60877657 89.49291992 11.67797852 C89.49481827 12.62276062 89.49671661 13.56754272 89.49867249 14.54095459 C89.50238756 17.67452197 89.49166638 20.80785935 89.48046875 23.94140625 C89.47927734 26.11091586 89.4788237 28.28042599 89.4790802 30.44993591 C89.47751411 35.00042949 89.46921433 39.55084454 89.45581055 44.10131836 C89.43881045 49.94833522 89.43499641 55.79526575 89.43575573 61.64230442 C89.43548445 66.12282645 89.43001019 70.60332943 89.42275429 75.08384514 C89.4195615 77.24052727 89.4175988 79.39721158 89.41686058 81.55389595 C89.41470403 84.56144045 89.40597501 87.56889144 89.39526367 90.57641602 C89.39571686 91.47670029 89.39617004 92.37698456 89.39663696 93.30455017 C89.36447396 99.44802604 89.36447396 99.44802604 88.25 100.5625 C86.91956375 100.6608721 85.58406656 100.69328592 84.25 100.6953125 C83.445625 100.69660156 82.64125 100.69789063 81.8125 100.69921875 C80.966875 100.69535156 80.12125 100.69148437 79.25 100.6875 C78.404375 100.69136719 77.55875 100.69523438 76.6875 100.69921875 C75.883125 100.69792969 75.07875 100.69664062 74.25 100.6953125 C73.5075 100.69418457 72.765 100.69305664 72 100.69189453 C70.25 100.5625 70.25 100.5625 69.25 99.5625 C69.12662826 97.72218011 69.07208692 95.87720589 69.04467773 94.03295898 C69.0147599 92.26123573 69.0147599 92.26123573 68.98423767 90.45372009 C68.96752518 89.1683284 68.95081268 87.88293671 68.93359375 86.55859375 C68.91281265 85.25044205 68.89203156 83.94229034 68.87062073 82.59449768 C68.815337 79.11094553 68.76595569 75.6273334 68.71777344 72.14367676 C68.66760426 68.5911727 68.61189433 65.0387561 68.55664062 61.48632812 C68.44898209 54.51179454 68.34755433 47.53718202 68.25 40.5625 C64.81644083 41.70701972 64.51695955 42.26303638 62.68359375 45.21875 C62.20253174 45.98654785 61.72146973 46.7543457 61.22583008 47.54541016 C60.71818115 48.3760498 60.21053223 49.20668945 59.6875 50.0625 C59.16244873 50.90731934 58.63739746 51.75213867 58.09643555 52.62255859 C54.05855077 59.15255161 50.1337797 65.74954888 46.28491211 72.39257812 C43.34153036 77.47096964 43.34153036 77.47096964 42.25 78.5625 C39.12865543 79.18805873 36.35901553 79.28119366 33.25 78.5625 C30.81501033 76.28280304 29.67787088 73.53955072 28.25 70.5625 C24.83806377 63.50224702 21.10838838 56.71647477 17.0625 50 C16.52947266 49.09958984 15.99644531 48.19917969 15.44726562 47.27148438 C14.93486328 46.41748047 14.42246094 45.56347656 13.89453125 44.68359375 C13.20387573 43.53008423 13.20387573 43.53008423 12.49926758 42.35327148 C11.36226507 40.41959418 11.36226507 40.41959418 9.25 39.5625 C9.25444122 40.29721527 9.25888245 41.03193054 9.26345825 41.78890991 C9.30349276 48.70485368 9.33396288 55.62078017 9.35362434 62.53680992 C9.36407224 66.09262399 9.37824959 69.6483425 9.40087891 73.20410156 C9.42671832 77.289723 9.43646444 81.37524369 9.4453125 85.4609375 C9.45563507 86.74116791 9.46595764 88.02139832 9.47659302 89.34042358 C9.47674408 90.52149689 9.47689514 91.70257019 9.47705078 92.91943359 C9.481492 93.96312103 9.48593323 95.00680847 9.49050903 96.0821228 C9.25 98.5625 9.25 98.5625 7.25 100.5625 C5.38647461 100.80541992 5.38647461 100.80541992 3.15234375 100.79296875 C2.35119141 100.79103516 1.55003906 100.78910156 0.72460938 100.78710938 C-0.11263672 100.77486328 -0.94988281 100.76261719 -1.8125 100.75 C-2.65361328 100.74935547 -3.49472656 100.74871094 -4.36132812 100.74804688 C-10.60976816 100.70273184 -10.60976816 100.70273184 -11.75 99.5625 C-11.84530981 96.51847578 -11.87551639 93.49718292 -11.86352539 90.45288086 C-11.86367142 89.49688492 -11.86381744 88.54088898 -11.8639679 87.55592346 C-11.86326835 84.37970755 -11.85547403 81.20354948 -11.84765625 78.02734375 C-11.84579222 75.83158907 -11.84436825 73.63583398 -11.84336853 71.44007874 C-11.83954219 65.64829367 -11.82971091 59.8565335 -11.81866455 54.0647583 C-11.80845293 48.15971209 -11.80387145 42.25466187 -11.79882812 36.34960938 C-11.78808875 24.75389528 -11.77101093 13.15819971 -11.75 1.5625 C-8.12586541 -0.2495673 -3.99228283 0.12157802 0 0 Z " fill="#578D3C" transform="translate(796.75,594.4375)"/>
<path d="M0 0 C1.29307571 -0.01913956 1.29307571 -0.01913956 2.61227417 -0.03866577 C3.54862701 -0.04089142 4.48497986 -0.04311707 5.44970703 -0.04541016 C6.41723907 -0.05206696 7.38477112 -0.05872375 8.38162231 -0.06558228 C10.43782651 -0.07572785 12.49406376 -0.08039871 14.55029297 -0.08007812 C17.66056881 -0.08440731 20.76937419 -0.12058326 23.87939453 -0.15869141 C37.30218423 -0.2358712 49.0816386 0.10728736 59.85595703 9.15771484 C66.65543385 16.49469972 69.17329408 24.59835907 69.04345703 34.34912109 C68.37661547 43.64785621 64.7601043 50.99609593 57.73486328 57.11865234 C52.36406159 61.29052734 52.36406159 61.29052734 49.83251953 61.29052734 C51.4959674 64.18822041 53.16381043 67.08336129 54.83251953 69.97802734 C55.57659058 71.27293091 55.57659058 71.27293091 56.33569336 72.59399414 C58.60339419 76.52148695 60.88303557 80.42591001 63.34423828 84.23583984 C63.71484375 84.81245361 64.08544922 85.38906738 64.46728516 85.9831543 C65.45676283 87.50569242 66.46247033 89.01764788 67.46923828 90.52880859 C69.03739013 93.70555173 69.18094472 95.79112657 68.83251953 99.29052734 C66.67014207 101.45290481 62.06214798 100.61447452 59.08251953 100.66552734 C58.27041016 100.70291016 57.45830078 100.74029297 56.62158203 100.77880859 C52.45023082 100.83995218 50.45375637 100.75191882 47.02392578 98.20458984 C44.62478686 95.01429102 42.49869578 91.75052235 40.52001953 88.29052734 C39.74335735 86.96460704 38.96599876 85.63909445 38.18798828 84.31396484 C37.7991748 83.64719727 37.41036133 82.98042969 37.00976562 82.29345703 C35.15778503 79.14255516 33.24896751 76.02750519 31.33251953 72.91552734 C30.68283203 71.85591797 30.03314453 70.79630859 29.36376953 69.70458984 C28.04317501 67.42839533 28.04317501 67.42839533 26.83251953 66.29052734 C24.81657372 66.05624957 22.79404553 65.8771661 20.77001953 65.72802734 C19.11292969 65.60234375 19.11292969 65.60234375 17.42236328 65.47412109 C16.56771484 65.41353516 15.71306641 65.35294922 14.83251953 65.29052734 C14.84299316 66.27972168 14.8534668 67.26891602 14.86425781 68.28808594 C14.90040972 71.95194898 14.92340235 75.61579621 14.94238281 79.27978516 C14.95245141 80.86672617 14.9661072 82.45364859 14.98339844 84.04052734 C15.00760954 86.31921981 15.01899375 88.5976674 15.02783203 90.87646484 C15.0381546 91.58797699 15.04847717 92.29948914 15.05911255 93.03256226 C15.05951375 94.786844 14.95454162 96.54049443 14.83251953 98.29052734 C12.83251953 100.29052734 12.83251953 100.29052734 10.96899414 100.53344727 C10.23173096 100.52933838 9.49446777 100.52522949 8.73486328 100.52099609 C7.93371094 100.5190625 7.13255859 100.51712891 6.30712891 100.51513672 C5.46988281 100.50289062 4.63263672 100.49064453 3.77001953 100.47802734 C2.92890625 100.47738281 2.08779297 100.47673828 1.22119141 100.47607422 C-5.02724863 100.43075918 -5.02724863 100.43075918 -6.16748047 99.29052734 C-6.27343914 96.28776042 -6.31425601 93.30786839 -6.31274414 90.30444336 C-6.31610275 89.36141357 -6.31946136 88.41838379 -6.32292175 87.44677734 C-6.33246272 84.31264956 -6.33437642 81.17857502 -6.33544922 78.04443359 C-6.33865957 75.87588987 -6.34202346 73.70734636 -6.34553528 71.5388031 C-6.3515344 66.98655698 -6.35337437 62.43432987 -6.3527832 57.88208008 C-6.35268153 52.03622552 -6.36633607 46.19049227 -6.38355541 40.34466648 C-6.39464975 35.86410457 -6.39670321 31.38357222 -6.39617348 26.90299797 C-6.39735739 24.74713663 -6.40180199 22.59127461 -6.40950584 20.43542671 C-6.41925428 17.42553224 -6.41644816 14.41590422 -6.41040039 11.40600586 C-6.4160199 10.50774582 -6.4216394 9.60948578 -6.4274292 8.68400574 C-6.39743842 2.83900793 -6.25931532 0.06288807 0 0 Z " fill="#578D3C" transform="translate(464.16748046875,594.70947265625)"/>
<path d="M0 0 C4.71249298 0.20915916 7.73616749 0.79613261 11.09399414 4.23266602 C13.80815893 7.61655419 16.06719702 11.26360785 18.24487305 15.01000977 C19.75374468 17.58971217 21.40308135 20.04576792 23.08691406 22.51318359 C24.30401515 24.30253571 25.49089507 26.10950463 26.67602539 27.92016602 C30.92857523 34.3601447 35.38759198 40.6603168 39.81176758 46.98291016 C40.46306641 47.91482178 41.11436523 48.8467334 41.78540039 49.80688477 C42.41510742 50.70761719 43.04481445 51.60834961 43.69360352 52.53637695 C45.95460726 55.8214824 48.13208587 59.15726563 50.28442383 62.5144043 C51.43066119 64.33449785 51.43066119 64.33449785 53.51977539 65.18969727 C53.51755478 64.40264908 53.51533417 63.61560089 53.51304626 62.80470276 C53.49304426 55.40279396 53.47780173 48.00089819 53.46796322 40.59896946 C53.46273519 36.79318149 53.45563901 32.98741578 53.44433594 29.18164062 C53.43350419 25.51177183 53.42749795 21.84192448 53.42489815 18.17204094 C53.42304442 16.76894734 53.41942479 15.36585497 53.41404533 13.96277046 C53.4068312 12.00400046 53.40636731 10.04520906 53.40625 8.08642578 C53.40402939 6.96945816 53.40180878 5.85249054 53.39952087 4.70167542 C53.51977539 2.18969727 53.51977539 2.18969727 54.51977539 1.18969727 C55.85021164 1.09132517 57.18570883 1.05891134 58.51977539 1.05688477 C59.32415039 1.0555957 60.12852539 1.05430664 60.95727539 1.05297852 C61.80290039 1.0568457 62.64852539 1.06071289 63.51977539 1.06469727 C64.78821289 1.05889648 64.78821289 1.05889648 66.08227539 1.05297852 C66.88665039 1.05426758 67.69102539 1.05555664 68.51977539 1.05688477 C69.26227539 1.0580127 70.00477539 1.05914062 70.76977539 1.06030273 C72.51977539 1.18969727 72.51977539 1.18969727 73.51977539 2.18969727 C73.62044573 5.28940491 73.65591839 8.36687398 73.64916992 11.46704102 C73.6517984 12.9278862 73.6517984 12.9278862 73.65447998 14.41824341 C73.65890038 17.65457921 73.65595984 20.89086086 73.65258789 24.12719727 C73.65326088 26.36539724 73.65423085 28.60359715 73.65548706 30.84179688 C73.65696429 35.53947646 73.65480868 40.23713707 73.65014648 44.93481445 C73.64444919 50.97130341 73.64772806 57.00774791 73.65371895 63.04423523 C73.65732389 67.66801288 73.65618628 72.2917799 73.65359116 76.91555786 C73.6529217 79.14201869 73.65375095 81.36848047 73.65607071 83.59494019 C73.65859614 86.70077081 73.65475819 89.80652836 73.64916992 92.91235352 C73.65119415 93.84226105 73.65321838 94.77216858 73.65530396 95.73025513 C73.63403766 102.075435 73.63403766 102.075435 72.51977539 103.18969727 C69.63757913 103.53460108 66.85030241 103.7466331 63.95727539 103.87719727 C63.17030273 103.95647461 62.38333008 104.03575195 61.57250977 104.11743164 C57.64299568 104.25673016 55.40115943 103.98150102 52.41552734 101.29931641 C50.29046807 98.68264473 48.39375518 95.99129112 46.51977539 93.18969727 C45.24513016 91.40968178 43.97039075 89.62973373 42.69555664 87.84985352 C41.40402126 85.98657908 40.11636754 84.12060906 38.83227539 82.25219727 C38.14456055 81.25800781 37.4568457 80.26381836 36.74829102 79.23950195 C32.31479911 72.82260578 27.91539398 66.38256348 23.51977539 59.93969727 C16.7502153 48.15635043 16.7502153 48.15635043 7.51977539 39.18969727 C7.521996 39.97674545 7.52421661 40.76379364 7.52650452 41.57469177 C7.54650652 48.97660057 7.56174905 56.37849634 7.57158756 63.78042507 C7.57681559 67.58621304 7.58391177 71.39197875 7.59521484 75.19775391 C7.60604659 78.86762271 7.61205283 82.53747005 7.61465263 86.20735359 C7.61650636 87.61044719 7.62012599 89.01353956 7.62550545 90.41662407 C7.63271958 92.37539407 7.63318348 94.33418547 7.63330078 96.29296875 C7.63552139 97.40993637 7.637742 98.52690399 7.64002991 99.67771912 C7.51977539 102.18969727 7.51977539 102.18969727 6.51977539 103.18969727 C3.52959378 103.31637491 0.57283431 103.37490565 -2.41772461 103.37719727 C-3.67359375 103.39556641 -3.67359375 103.39556641 -4.95483398 103.41430664 C-5.75598633 103.41624023 -6.55713867 103.41817383 -7.38256836 103.42016602 C-8.11983154 103.4242749 -8.85709473 103.42838379 -9.61669922 103.43261719 C-11.48022461 103.18969727 -11.48022461 103.18969727 -13.48022461 101.18969727 C-13.67923166 98.09645524 -13.75284043 95.09269953 -13.73901367 91.99829102 C-13.74427063 90.56889694 -13.74427063 90.56889694 -13.74963379 89.11062622 C-13.75846214 85.94940991 -13.75259803 82.78841599 -13.74584961 79.62719727 C-13.74719594 77.43766232 -13.7491362 75.24812767 -13.75164795 73.05859375 C-13.75460071 68.46522176 -13.75029666 63.87192744 -13.7409668 59.27856445 C-13.72957222 53.38003863 -13.73613087 47.4816948 -13.74811172 41.58317566 C-13.75532621 37.06057352 -13.75304429 32.53801479 -13.74785614 28.01541138 C-13.7465185 25.84001647 -13.74817132 23.66461766 -13.75281525 21.48922729 C-13.7578737 18.45307929 -13.75017979 15.41722924 -13.73901367 12.38110352 C-13.74306213 11.47506378 -13.7471106 10.56902405 -13.75128174 9.63552856 C-13.68295575 -0.35287732 -8.58169756 0.21311497 0 0 Z " fill="#578C3C" transform="translate(755.480224609375,469.810302734375)"/>
<path d="M0 0 C0.81146484 -0.01998047 1.62292969 -0.03996094 2.45898438 -0.06054688 C3.24466797 -0.05990234 4.03035156 -0.05925781 4.83984375 -0.05859375 C5.55390381 -0.06044678 6.26796387 -0.0622998 7.00366211 -0.06420898 C9.99879103 0.66566057 11.12941921 2.06572337 13.0625 4.4375 C14.48876953 7.16552734 14.48876953 7.16552734 15.8203125 10.3984375 C16.19435715 11.3012294 16.19435715 11.3012294 16.57595825 12.22225952 C20.21189801 21.09622716 23.55700348 30.08914012 26.9375 39.0625 C31.29466657 50.61244948 35.69114771 62.13918773 40.31820679 73.58425903 C42.49948221 78.98591717 44.59129694 84.4160882 46.625 89.875 C47.01916611 90.90704056 47.01916611 90.90704056 47.42129517 91.95993042 C48.80509687 95.81961936 49.40761131 98.50507076 48.0625 102.4375 C47.0625 103.4375 47.0625 103.4375 45.29663086 103.55102539 C44.54776611 103.54578857 43.79890137 103.54055176 43.02734375 103.53515625 C42.21845703 103.53193359 41.40957031 103.52871094 40.57617188 103.52539062 C39.72603516 103.51701172 38.87589844 103.50863281 38 103.5 C37.14599609 103.49548828 36.29199219 103.49097656 35.41210938 103.48632812 C33.29554337 103.47450373 31.17901315 103.45656769 29.0625 103.4375 C26.80206123 99.02241846 24.6479454 94.63860408 22.875 90 C21.85681472 86.97383044 21.85681472 86.97383044 20.0625 84.4375 C17.10544679 84.34881701 14.17184944 84.32229704 11.21484375 84.33984375 C10.3284169 84.3412587 9.44199005 84.34267365 8.52870178 84.34413147 C5.68576746 84.34974785 2.84291069 84.36230309 0 84.375 C-1.92252491 84.38001289 -3.84505104 84.38457616 -5.76757812 84.38867188 C-10.49091549 84.39972259 -15.21419458 84.41699817 -19.9375 84.4375 C-20.5797232 85.70911584 -21.22046912 86.98147783 -21.8605957 88.25415039 C-22.39605766 89.31684898 -22.39605766 89.31684898 -22.94233704 90.40101624 C-24.13729468 92.84635628 -25.1535061 95.33325472 -26.125 97.875 C-27.8335396 102.3335396 -27.8335396 102.3335396 -28.9375 103.4375 C-30.26793625 103.5358721 -31.60343344 103.56828592 -32.9375 103.5703125 C-33.741875 103.57160156 -34.54625 103.57289063 -35.375 103.57421875 C-36.220625 103.57035156 -37.06625 103.56648437 -37.9375 103.5625 C-38.783125 103.56636719 -39.62875 103.57023438 -40.5 103.57421875 C-41.304375 103.57292969 -42.10875 103.57164062 -42.9375 103.5703125 C-43.68 103.56918457 -44.4225 103.56805664 -45.1875 103.56689453 C-46.9375 103.4375 -46.9375 103.4375 -47.9375 102.4375 C-47.85774799 96.40095357 -46.36164147 91.01434821 -44.1640625 85.44921875 C-43.88462799 84.71671402 -43.60519348 83.98420929 -43.31729126 83.22950745 C-42.40928994 80.85724344 -41.48623758 78.49117558 -40.5625 76.125 C-39.92333125 74.46548579 -39.28499413 72.80565104 -38.64746094 71.14550781 C-37.05325335 67.00313452 -35.44594992 62.86601236 -33.83239746 58.73114014 C-33.00659132 56.61458244 -32.1829786 54.49718944 -31.36035156 52.37939453 C-28.68358144 45.49588406 -25.97894669 38.62401033 -23.25195312 31.76025391 C-21.86941068 28.26537972 -20.5041915 24.76403647 -19.140625 21.26171875 C-18.2398677 18.96603424 -17.33883667 16.6704571 -16.4375 14.375 C-16.02790039 13.31506836 -15.61830078 12.25513672 -15.19628906 11.16308594 C-14.81182617 10.19016602 -14.42736328 9.21724609 -14.03125 8.21484375 C-13.53141602 6.93468384 -13.53141602 6.93468384 -13.02148438 5.62866211 C-9.98597203 -0.50731161 -6.2446445 -0.05430126 0 0 Z " fill="#568B3C" transform="translate(677.9375,469.5625)"/>
<path d="M0 0 C0.88537445 -0.01283524 1.7707489 -0.02567047 2.68295288 -0.03889465 C3.64947784 -0.04628159 4.61600281 -0.05366852 5.61181641 -0.0612793 C6.60533112 -0.06935104 7.59884583 -0.07742279 8.62246704 -0.08573914 C10.7359237 -0.09960767 12.84940303 -0.11031735 14.96289062 -0.11816406 C18.16532533 -0.13524179 21.36669105 -0.17908615 24.56884766 -0.22338867 C26.62482966 -0.23352728 28.68082045 -0.24203971 30.73681641 -0.2487793 C31.68309906 -0.26628738 32.62938171 -0.28379547 33.6043396 -0.30183411 C44.55544757 -0.26689208 52.83900597 3.23177478 60.67431641 10.8059082 C67.90030066 18.72318698 70.21951866 26.33111939 70.02587891 36.9934082 C69.45947403 46.61049107 65.9277284 54.93231423 58.90869141 61.5715332 C52.57813386 66.48070141 45.63313064 69.24086752 37.67431641 69.45825195 C36.47033203 69.49563477 35.26634766 69.53301758 34.02587891 69.5715332 C31.4764057 69.64206166 28.92692648 69.71237284 26.37744141 69.7824707 C24.57533203 69.83854492 24.57533203 69.83854492 22.73681641 69.89575195 C21.62999512 69.92604492 20.52317383 69.95633789 19.3828125 69.98754883 C16.90402175 69.89380895 16.90402175 69.89380895 15.83837891 71.17700195 C15.69185175 73.38246221 15.61088379 75.59233329 15.55712891 77.80200195 C15.53871948 78.46409668 15.52031006 79.12619141 15.50134277 79.80834961 C15.44243193 81.93114111 15.38967966 84.05401369 15.33837891 86.17700195 C15.27091563 88.9688469 15.19724825 91.760423 15.11962891 94.55200195 C15.07418945 96.41985352 15.07418945 96.41985352 15.02783203 98.32543945 C14.83837891 101.17700195 14.83837891 101.17700195 13.83837891 102.17700195 C12.50794266 102.27537405 11.17244546 102.30778788 9.83837891 102.30981445 C9.03400391 102.31110352 8.22962891 102.31239258 7.40087891 102.3137207 C6.55525391 102.30985352 5.70962891 102.30598633 4.83837891 102.30200195 C3.99275391 102.30586914 3.14712891 102.30973633 2.27587891 102.3137207 C1.47150391 102.31243164 0.66712891 102.31114258 -0.16162109 102.30981445 C-0.90412109 102.30868652 -1.64662109 102.30755859 -2.41162109 102.30639648 C-4.16162109 102.17700195 -4.16162109 102.17700195 -5.16162109 101.17700195 C-5.26229143 98.07729431 -5.2977641 94.99982524 -5.29101562 91.8996582 C-5.29276794 90.92576141 -5.29452026 89.95186462 -5.29632568 88.94845581 C-5.30074608 85.71212001 -5.29780555 82.47583836 -5.29443359 79.23950195 C-5.29510658 77.00130198 -5.29607656 74.76310207 -5.29733276 72.52490234 C-5.29880999 67.82722276 -5.29665438 63.12956215 -5.29199219 58.43188477 C-5.28629489 52.39539581 -5.28957376 46.35895131 -5.29556465 40.32246399 C-5.29916959 35.69868634 -5.29803199 31.07491932 -5.29543686 26.45114136 C-5.2947674 24.22468053 -5.29559665 21.99821875 -5.29791641 19.77175903 C-5.30044184 16.66592841 -5.29660389 13.56017086 -5.29101562 10.4543457 C-5.29303986 9.52443817 -5.29506409 8.59453064 -5.29714966 7.63644409 C-5.27177808 0.06638193 -5.27177808 0.06638193 0 0 Z " fill="#568C3C" transform="translate(464.16162109375,470.822998046875)"/>
<path d="M0 0 C0.78955078 -0.01224609 1.57910156 -0.02449219 2.39257812 -0.03710938 C4.45057435 -0.04237279 6.50812009 0.06543715 8.5625 0.1875 C11.46747155 3.09247155 10.9169517 6.14149306 10.9765625 10.0390625 C10.99592865 10.81309418 11.0152948 11.58712585 11.0352478 12.38461304 C11.0950983 14.86046275 11.14145011 17.33635883 11.1875 19.8125 C11.22567482 21.48960377 11.26472625 23.16668784 11.3046875 24.84375 C11.40080409 28.95817353 11.48481439 33.07268886 11.5625 37.1875 C16.38630802 37.2121519 21.21007967 37.23033693 26.03393555 37.24243164 C27.67619464 37.24747174 29.31844923 37.25430378 30.96069336 37.26293945 C33.31625479 37.27501926 35.67175709 37.28073139 38.02734375 37.28515625 C38.76589096 37.29031754 39.50443817 37.29547882 40.2653656 37.30079651 C42.03148088 37.3009925 43.79747146 37.24944719 45.5625 37.1875 C47.56753509 35.18246491 46.81838663 31.18724556 46.87890625 28.43359375 C46.89968735 27.65814713 46.92046844 26.8827005 46.94187927 26.08375549 C47.00745802 23.59759692 47.06629799 21.11132955 47.125 18.625 C47.16817733 16.94334796 47.21179136 15.26170706 47.25585938 13.58007812 C47.36397281 9.4493288 47.46298331 5.31850133 47.5625 1.1875 C53.8325 1.1875 60.1025 1.1875 66.5625 1.1875 C66.58504989 12.90477131 66.60341443 24.62202831 66.61431217 36.33931637 C66.61954128 41.77952312 66.62663943 47.21971431 66.63793945 52.65991211 C66.64876735 57.90535702 66.65477662 63.15078692 66.65737724 68.39624214 C66.65923167 70.40220946 66.66285262 72.40817592 66.66823006 74.41413689 C66.67543919 77.21352824 66.676491 80.01285679 66.67602539 82.81225586 C66.67962067 83.65022705 66.68321594 84.48819824 66.68692017 85.3515625 C66.67655216 91.07344784 66.67655216 91.07344784 65.5625 92.1875 C62.71914952 92.28736975 59.90552837 92.32627881 57.0625 92.3125 C55.86560547 92.31830078 55.86560547 92.31830078 54.64453125 92.32421875 C48.68910767 92.31410767 48.68910767 92.31410767 47.5625 91.1875 C47.4150031 88.75304087 47.32761465 86.34321433 47.28125 83.90625 C47.26284058 83.17756714 47.24443115 82.44888428 47.22546387 81.69812012 C47.14653496 78.56794372 47.0789625 75.43754361 47.01025391 72.30712891 C46.95862846 70.0275575 46.90133739 67.74817728 46.84375 65.46875 C46.83017456 64.75521362 46.81659912 64.04167725 46.8026123 63.30651855 C47.00322762 59.96050001 47.00322762 59.96050001 45.5625 57.1875 C43.04155924 57.09902257 40.54819107 57.07222699 38.02734375 57.08984375 C37.27409317 57.0912587 36.52084259 57.09267365 35.74476624 57.09413147 C33.3298044 57.09974624 30.91493399 57.11230117 28.5 57.125 C26.86653779 57.1300131 25.23307414 57.13457634 23.59960938 57.13867188 C19.58720415 57.14972046 15.57486759 57.16699494 11.5625 57.1875 C11.53744385 58.21222412 11.5123877 59.23694824 11.48657227 60.29272461 C11.39265516 64.08159676 11.29239683 67.87027881 11.19018555 71.65893555 C11.14677703 73.30114303 11.10510642 74.94339739 11.06518555 76.58569336 C11.0076256 78.94138745 10.94389108 81.29684428 10.87890625 83.65234375 C10.85383751 84.76016457 10.85383751 84.76016457 10.82826233 85.8903656 C10.67637171 91.07362829 10.67637171 91.07362829 9.5625 92.1875 C8.23206375 92.2858721 6.89656656 92.31828592 5.5625 92.3203125 C4.758125 92.32160156 3.95375 92.32289063 3.125 92.32421875 C2.279375 92.32035156 1.43375 92.31648438 0.5625 92.3125 C-0.283125 92.31636719 -1.12875 92.32023437 -2 92.32421875 C-2.804375 92.32292969 -3.60875 92.32164062 -4.4375 92.3203125 C-5.18 92.31918457 -5.9225 92.31805664 -6.6875 92.31689453 C-8.4375 92.1875 -8.4375 92.1875 -9.4375 91.1875 C-9.53801875 88.39297729 -9.57365894 85.62313645 -9.56689453 82.828125 C-9.56864685 81.95176392 -9.57039917 81.07540283 -9.57220459 80.17248535 C-9.57662432 77.26080373 -9.57368469 74.3491823 -9.5703125 71.4375 C-9.5709855 69.42350248 -9.5719555 67.40950505 -9.57321167 65.39550781 C-9.57468881 61.16861195 -9.57253358 56.94173717 -9.56787109 52.71484375 C-9.5621738 47.28369468 -9.56545272 41.85259501 -9.57144356 36.42144775 C-9.57504874 32.26090113 -9.57391078 28.10036631 -9.57131577 23.93981934 C-9.57064638 21.93664545 -9.57147533 19.93347051 -9.57379532 17.93029785 C-9.57632115 15.13579448 -9.57248224 12.34137229 -9.56689453 9.546875 C-9.56891876 8.71047485 -9.57094299 7.87407471 -9.57302856 7.0123291 C-9.54296215 -1.06136351 -7.32118704 0.00594735 0 0 Z " fill="#558A3B" transform="translate(548.4375,354.8125)"/>
<path d="M0 0 C1.13465195 -0.00637985 2.26930389 -0.0127597 3.43833923 -0.01933289 C4.67370926 -0.02044571 5.90907928 -0.02155853 7.18188477 -0.02270508 C9.07040916 -0.02769768 9.07040916 -0.02769768 10.99708557 -0.03279114 C13.66622437 -0.03786576 16.33526142 -0.04063047 19.00439453 -0.04003906 C22.42891817 -0.03993743 25.85323452 -0.05358833 29.27770901 -0.07081127 C32.53742665 -0.08458749 35.79714193 -0.08401959 39.05688477 -0.08520508 C40.29023056 -0.09239059 41.52357635 -0.09957611 42.79429626 -0.10697937 C44.50100243 -0.10236443 44.50100243 -0.10236443 46.2421875 -0.09765625 C47.74989967 -0.09979378 47.74989967 -0.09979378 49.28807068 -0.10197449 C51.68579102 0.14526367 51.68579102 0.14526367 53.68579102 2.14526367 C53.95141602 5.33276367 53.95141602 5.33276367 53.93579102 9.14526367 C53.94352539 11.03245117 53.94352539 11.03245117 53.95141602 12.95776367 C53.68579102 16.14526367 53.68579102 16.14526367 51.68579102 18.14526367 C48.90502308 18.37879775 46.21629591 18.49473238 43.43188477 18.52416992 C42.61583267 18.5411644 41.79978058 18.55815887 40.95899963 18.57566833 C38.34717575 18.62889439 35.73536858 18.66914263 33.12329102 18.70776367 C30.50772409 18.75163213 27.8922832 18.79828276 25.27687073 18.85057068 C23.64768395 18.88262643 22.01838551 18.9094854 20.38902283 18.93080139 C16.73593158 18.65638448 16.73593158 18.65638448 13.68579102 20.14526367 C13.58597888 22.82257747 13.54699226 25.46830542 13.56079102 28.14526367 C13.55692383 28.89549805 13.55305664 29.64573242 13.54907227 30.41870117 C13.2090356 34.08132484 13.2090356 34.08132484 14.68579102 37.14526367 C17.19295939 37.29283366 19.67618151 37.38018707 22.18579102 37.42651367 C23.31210937 37.45412781 23.31210937 37.45412781 24.46118164 37.4822998 C26.86930289 37.54122671 29.27749572 37.59397235 31.68579102 37.64526367 C34.85261545 37.71270997 38.01920186 37.78637788 41.18579102 37.86401367 C41.92120117 37.87758911 42.65661133 37.89116455 43.41430664 37.90515137 C48.5729892 38.03246186 48.5729892 38.03246186 49.68579102 39.14526367 C49.78560315 41.82257747 49.82458977 44.46830542 49.81079102 47.14526367 C49.8165918 48.27061523 49.8165918 48.27061523 49.82250977 49.41870117 C49.81240155 55.01865314 49.81240155 55.01865314 48.68579102 56.14526367 C46.16698584 56.30514858 43.67236835 56.40460592 41.15063477 56.46166992 C40.39738419 56.48245102 39.64413361 56.50323212 38.86805725 56.52464294 C36.45323112 56.59021792 34.03829303 56.64905988 31.62329102 56.70776367 C29.98981573 56.75094137 28.35635191 56.7945554 26.72290039 56.83862305 C22.71064638 56.94590729 18.69827938 57.04715188 14.68579102 57.14526367 C14.65894423 59.79116381 14.63902745 62.43679463 14.62329102 65.08276367 C14.61491211 65.83750977 14.6065332 66.59225586 14.59790039 67.36987305 C14.58926661 69.29520681 14.63354769 71.22061948 14.68579102 73.14526367 C16.73667525 75.19614791 21.01583691 74.37861673 23.84204102 74.42651367 C24.65950806 74.4449231 25.4769751 74.46333252 26.31921387 74.4822998 C28.94133093 74.54123644 31.56351379 74.59397805 34.18579102 74.64526367 C37.63385292 74.71269972 41.08169563 74.78636792 44.52954102 74.86401367 C45.33057251 74.87758911 46.131604 74.89116455 46.95690918 74.90515137 C52.5729892 75.03246186 52.5729892 75.03246186 53.68579102 76.14526367 C53.78554134 78.65662472 53.82461285 81.13429782 53.81079102 83.64526367 C53.8165918 84.69907227 53.8165918 84.69907227 53.82250977 85.77416992 C53.81240479 91.01864989 53.81240479 91.01864989 52.68579102 92.14526367 C50.88069729 92.24425928 49.07172174 92.27325518 47.26391602 92.2746582 C46.10601563 92.27781036 44.94811523 92.28096252 43.75512695 92.28421021 C41.86455566 92.28117386 41.86455566 92.28117386 39.93579102 92.27807617 C38.65220703 92.2790329 37.36862305 92.27998962 36.04614258 92.28097534 C33.32575278 92.28245198 30.60539576 92.28029886 27.88500977 92.27563477 C24.39094432 92.26993748 20.89695569 92.27321667 17.40289307 92.27920723 C14.08051949 92.28368122 10.75816678 92.28055252 7.43579102 92.27807617 C6.17541016 92.2801004 4.9150293 92.28212463 3.61645508 92.28421021 C2.45855469 92.28105804 1.3006543 92.27790588 0.10766602 92.2746582 C-0.91746094 92.27386261 -1.94258789 92.27306702 -2.9987793 92.27224731 C-5.31420898 92.14526367 -5.31420898 92.14526367 -6.31420898 91.14526367 C-6.41472773 88.35074097 -6.45036792 85.58090012 -6.44360352 82.78588867 C-6.44535583 81.90952759 -6.44710815 81.0331665 -6.44891357 80.13024902 C-6.45333331 77.2185674 -6.45039368 74.30694597 -6.44702148 71.39526367 C-6.44769449 69.38126616 -6.44866448 67.36726872 -6.44992065 65.35327148 C-6.45139779 61.12637562 -6.44924256 56.89950084 -6.44458008 52.67260742 C-6.43888278 47.24145835 -6.4421617 41.81035868 -6.44815254 36.37921143 C-6.45175773 32.2186648 -6.45061977 28.05812998 -6.44802475 23.89758301 C-6.44735536 21.89440912 -6.44818431 19.89123418 -6.4505043 17.88806152 C-6.45303013 15.09355815 -6.44919123 12.29913596 -6.44360352 9.50463867 C-6.44562775 8.66823853 -6.44765198 7.83183838 -6.44973755 6.97009277 C-6.42568502 0.51130145 -6.40324511 0.02430226 0 0 Z " fill="#558A3B" transform="translate(643.314208984375,354.854736328125)"/>
<path d="M0 0 C1.03881569 0.00842926 1.03881569 0.00842926 2.09861755 0.01702881 C3.19392288 0.01418129 3.19392288 0.01418129 4.31135559 0.01127625 C6.7307043 0.0075643 9.14975441 0.01827756 11.56907654 0.02947998 C13.24534062 0.03067155 14.92160538 0.03112499 16.59786987 0.03086853 C20.11264723 0.03243406 23.62732282 0.04072971 27.14207458 0.05413818 C31.65734627 0.07114121 36.17250618 0.0749522 40.68780613 0.074193 C44.14922156 0.07446432 47.61061233 0.07993922 51.07201958 0.08719444 C52.73747 0.09038623 54.40292322 0.0923497 56.06837654 0.09308815 C58.39100577 0.0952456 60.7135141 0.10397642 63.03611755 0.11468506 C63.73068558 0.11423187 64.4252536 0.11377869 65.14086914 0.11331177 C69.88819503 0.14547347 69.88819503 0.14547347 71.00267029 1.25994873 C71.10254004 4.10329921 71.1414491 6.91692036 71.12767029 9.75994873 C71.13153748 10.55787842 71.13540466 11.35580811 71.13938904 12.17791748 C71.12927796 18.13334106 71.12927796 18.13334106 70.00267029 19.25994873 C68.07788216 19.41801404 66.14767819 19.51108373 64.21751404 19.57635498 C62.46277771 19.63919678 62.46277771 19.63919678 60.67259216 19.70330811 C59.44089294 19.74262451 58.20919373 19.78194092 56.94017029 19.82244873 C55.08682068 19.88722412 55.08682068 19.88722412 53.19602966 19.95330811 C50.13169693 20.05979071 47.06727956 20.16180297 44.00267029 20.25994873 C42.49301724 23.27925482 42.83221164 26.40961003 42.81321716 29.7230835 C42.80492386 30.49230133 42.79663055 31.26151917 42.78808594 32.05404663 C42.77067189 33.72645053 42.75550879 35.39887901 42.74230957 37.07132149 C42.72131977 39.71401035 42.69429542 42.35657523 42.66563416 44.99919128 C42.59572383 51.56155263 42.53632549 58.12400182 42.47660828 64.6864624 C42.42576396 70.23121836 42.37097008 75.77590724 42.31079102 81.32056999 C42.284124 83.93141082 42.26336697 86.54225759 42.24278259 89.15315247 C42.22618723 90.7441742 42.20931607 92.3351931 42.19212341 93.9262085 C42.187939 94.65817947 42.18375458 95.39015045 42.17944336 96.14430237 C42.11651641 101.14610261 42.11651641 101.14610261 41.00267029 102.25994873 C39.67223404 102.35832083 38.33673684 102.39073465 37.00267029 102.39276123 C36.19829529 102.39405029 35.39392029 102.39533936 34.56517029 102.39666748 C33.71954529 102.39280029 32.87392029 102.38893311 32.00267029 102.38494873 C31.15704529 102.38881592 30.31142029 102.39268311 29.44017029 102.39666748 C28.63579529 102.39537842 27.83142029 102.39408936 27.00267029 102.39276123 C26.26017029 102.3916333 25.51767029 102.39050537 24.75267029 102.38934326 C23.00267029 102.25994873 23.00267029 102.25994873 22.00267029 101.25994873 C21.8830018 98.77111417 21.82724354 96.3087569 21.81321716 93.81854248 C21.80492386 93.0397171 21.79663055 92.26089172 21.78808594 91.45846558 C21.77064779 89.76203476 21.75549137 88.06557934 21.74230957 86.36911011 C21.72135185 83.688696 21.69432431 81.00840571 21.66563416 78.32806396 C21.59565578 71.67053325 21.53634367 65.01291469 21.47660828 58.35528564 C21.42576512 52.7336204 21.37096387 47.11202136 21.31079102 41.490448 C21.28411658 38.84193868 21.2633623 36.19342355 21.24278259 33.54486084 C21.22618658 31.93035588 21.20931537 30.31585371 21.19212341 28.70135498 C21.187939 27.95846222 21.18375458 27.21556946 21.17944336 26.45016479 C21.4343336 23.06777675 21.4343336 23.06777675 20.00267029 20.25994873 C18.0892676 20.11403673 16.17087068 20.03261944 14.25267029 19.97869873 C12.50470154 19.92262451 12.50470154 19.92262451 10.72142029 19.86541748 C9.49423279 19.83061279 8.26704529 19.79580811 7.00267029 19.75994873 C4.58587563 19.69140518 2.16919363 19.61871994 -0.24732971 19.54119873 C-1.32498596 19.51090576 -2.40264221 19.48061279 -3.51295471 19.44940186 C-5.99732971 19.25994873 -5.99732971 19.25994873 -6.99732971 18.25994873 C-7.12391193 15.60172216 -7.18253185 12.98107449 -7.18482971 10.32244873 C-7.19707581 9.58059326 -7.2093219 8.83873779 -7.22193909 8.07440186 C-7.22721449 6.13481244 -7.11921873 4.19571163 -6.99732971 2.25994873 C-4.57169614 -0.16568484 -3.30969241 0.02195322 0 0 Z " fill="#588E3C" transform="translate(852.9973297119141,470.74005126953125)"/>
<path d="M0 0 C0.61101563 0.41378906 1.22203125 0.82757812 1.8515625 1.25390625 C2.48320313 1.67800781 3.11484375 2.10210938 3.765625 2.5390625 C10.39658144 7.60398454 14.31031071 15.12730589 15.8515625 23.25390625 C16.74123751 33.53283005 15.09776926 42.4342666 8.4375 50.5078125 C2.48659232 57.05967391 -4.10678494 60.42086502 -12.953125 61.640625 C-21.59134065 61.99545255 -28.69968462 59.48473016 -35.4609375 54.12890625 C-42.2546903 47.76148207 -45.1912262 39.48683477 -45.4921875 30.36499023 C-45.64157488 19.67562269 -43.7643962 12.89343664 -36.3359375 4.87890625 C-26.69252822 -3.91047416 -11.9019231 -6.59430874 0 0 Z " fill="#111211" transform="translate(730.1484375,615.74609375)"/>
<path d="M0 0 C5.64178956 4.52471523 10.72973611 10.38265402 12.875 17.375 C13.98242111 29.2475845 13.01043788 39.68298245 5.25 49.25 C-0.53931409 55.29950798 -7.89949048 58.95695924 -16.25 59.625 C-25.7594022 59.01149018 -33.16950505 55.66438899 -39.75 48.75 C-45.59279399 41.84723011 -48.53559232 32.93918129 -48.40234375 23.9375 C-47.53310711 15.90624314 -43.92892361 8.01275811 -38.125 2.375 C-25.97621339 -6.7057331 -13.08479045 -9.05870108 0 0 Z " fill="#111211" transform="translate(615.125,617.625)"/>
<path d="M0 0 C0.83265381 0.00523682 1.66530762 0.01047363 2.52319336 0.01586914 C3.42231445 0.0190918 4.32143555 0.02231445 5.24780273 0.02563477 C6.66609375 0.03820312 6.66609375 0.03820312 8.11303711 0.05102539 C9.06243164 0.05553711 10.01182617 0.06004883 10.98999023 0.06469727 C13.34356776 0.07652429 15.69702188 0.09300514 18.05053711 0.11352539 C18.06084457 1.13860703 18.07115204 2.16368866 18.08177185 3.21983337 C18.1793338 12.85865777 18.28205109 22.49741512 18.38987637 32.13613033 C18.44514913 37.09203251 18.49857595 42.04794053 18.54785156 47.00390625 C18.59543107 51.78256609 18.64777129 56.56115181 18.70347786 61.33972359 C18.72393058 63.16704028 18.74263872 64.99437733 18.75961113 66.82172966 C18.78359085 69.37211373 18.81365375 71.92235636 18.84521484 74.47265625 C18.85384804 75.61740417 18.85384804 75.61740417 18.86265564 76.78527832 C18.60320778 80.24044389 18.60320778 80.24044389 20.05053711 83.11352539 C23.07860755 83.27388099 26.08639165 83.37312987 29.11694336 83.42993164 C30.02556625 83.45071274 30.93418915 83.47149384 31.87034607 83.49290466 C34.78449657 83.55850211 37.69874015 83.61733219 40.61303711 83.67602539 C42.58375002 83.71920093 44.55445337 83.7628149 46.52514648 83.80688477 C51.3668492 83.91502225 56.20861839 84.01401941 61.05053711 84.11352539 C61.05053711 90.05352539 61.05053711 95.99352539 61.05053711 102.11352539 C53.00127824 102.18123333 44.95223979 102.23630177 36.9027729 102.26896191 C33.16529915 102.28463511 29.42802988 102.305903 25.69067383 102.33984375 C22.08562071 102.37237906 18.48076459 102.39036593 14.87557602 102.39815712 C13.4984006 102.4037112 12.12123626 102.41455674 10.74414444 102.43071556 C8.8192008 102.45240974 6.89405999 102.4537501 4.96899414 102.45410156 C3.87201202 102.4607634 2.77502991 102.46742523 1.64480591 102.47428894 C0.7886972 102.35523697 -0.0674115 102.236185 -0.94946289 102.11352539 C-2.98693971 99.05731017 -3.19930333 98.47179226 -3.19670105 95.03903198 C-3.20089554 94.21176605 -3.20509003 93.38450012 -3.20941162 92.53216553 C-3.20379211 91.62815002 -3.19817261 90.72413452 -3.19238281 89.79272461 C-3.19428116 88.83804291 -3.1961795 87.88336121 -3.19813538 86.89974976 C-3.20184499 83.73915436 -3.19113757 80.57878791 -3.17993164 77.41821289 C-3.17874 75.22771227 -3.17828664 73.03721113 -3.17854309 70.84671021 C-3.17697799 66.25511478 -3.16868512 61.6635973 -3.15527344 57.07202148 C-3.13826357 51.17234643 -3.13445964 45.27275693 -3.13521862 39.37306023 C-3.13494737 34.85050635 -3.1294737 30.32797135 -3.12221718 25.80542374 C-3.11902475 23.62920398 -3.11706177 21.45298207 -3.11632347 19.2767601 C-3.1141671 16.24298161 -3.10543878 13.20929584 -3.09472656 10.17553711 C-3.09517975 9.26747314 -3.09563293 8.35940918 -3.09609985 7.42382812 C-3.05848801 0.17810857 -3.05848801 0.17810857 0 0 Z " fill="#568B3C" transform="translate(553.949462890625,470.886474609375)"/>
<path d="M0 0 C24.09 0 48.18 0 73 0 C73 5.61 73 11.22 73 17 C72 18 72 18 69.68334961 18.11352539 C68.68311768 18.10828857 67.68288574 18.10305176 66.65234375 18.09765625 C65.57275391 18.09443359 64.49316406 18.09121094 63.38085938 18.08789062 C62.24455078 18.07951172 61.10824219 18.07113281 59.9375 18.0625 C58.79732422 18.05798828 57.65714844 18.05347656 56.48242188 18.04882812 C53.65489649 18.03699747 50.8274736 18.0205141 48 18 C47.98969254 18.89980087 47.97938507 19.79960175 47.96876526 20.72666931 C47.87096659 29.18820786 47.7684778 37.6496736 47.66066074 46.11109066 C47.60539215 50.46164806 47.55196601 54.81221212 47.50268555 59.1628418 C47.45509986 63.3579621 47.40275942 67.55299812 47.34705925 71.74801826 C47.32660934 73.35204545 47.30790071 74.95609577 47.29092598 76.5601635 C47.26694003 78.79922769 47.23687806 81.03813116 47.20532227 83.27709961 C47.18977798 84.55395126 47.1742337 85.83080292 47.15821838 87.14634705 C47 90 47 90 46 91 C44.66956375 91.0983721 43.33406656 91.13078592 42 91.1328125 C41.195625 91.13410156 40.39125 91.13539063 39.5625 91.13671875 C38.716875 91.13285156 37.87125 91.12898438 37 91.125 C36.154375 91.12886719 35.30875 91.13273437 34.4375 91.13671875 C33.633125 91.13542969 32.82875 91.13414062 32 91.1328125 C31.2575 91.13168457 30.515 91.13055664 29.75 91.12939453 C28 91 28 91 27 90 C26.88120241 87.79721887 26.8325483 85.59063813 26.81054688 83.38476562 C26.80225357 82.69372238 26.79396027 82.00267914 26.78541565 81.29069519 C26.76798043 79.78579533 26.75282319 78.28086779 26.73963928 76.77592468 C26.71867681 74.39794684 26.6916497 72.02010829 26.66296387 69.64221191 C26.59299508 63.73597073 26.53367725 57.82963067 26.47393799 51.92327881 C26.42308956 46.93574696 26.36828673 41.94828962 26.30812073 36.96086121 C26.28145153 34.61150293 26.26069416 32.26213811 26.2401123 29.91271973 C26.2235159 28.48022122 26.20664465 27.04772586 26.18945312 25.61523438 C26.17692505 24.35916382 26.16439697 23.10309326 26.15148926 21.80895996 C26.31882703 19.09615994 26.31882703 19.09615994 25 18 C23.23266824 17.85447268 21.45999006 17.77277531 19.6875 17.71875 C18.61242187 17.68136719 17.53734375 17.64398438 16.4296875 17.60546875 C15.29789062 17.57066406 14.16609375 17.53585937 13 17.5 C10.77069493 17.43144506 8.54151176 17.3587576 6.3125 17.28125 C5.31863281 17.25095703 4.32476562 17.22066406 3.30078125 17.18945312 C1 17 1 17 0 16 C0 10.72 0 5.44 0 0 Z " fill="#578D3C" transform="translate(451,356)"/>
<path d="M0 0 C0.90556641 0.00322266 1.81113281 0.00644531 2.74414062 0.00976562 C3.63037109 -0.00634766 4.51660156 -0.02246094 5.4296875 -0.0390625 C12.18110071 -0.04405985 17.1800779 0.824198 22.43164062 5.38476562 C25.1962457 8.68102552 25.24378048 10.88646737 25.30664062 15.13476562 C25.33242188 16.17246094 25.35820313 17.21015625 25.38476562 18.27929688 C24.88376701 22.92546265 22.99923649 25.45217713 19.61914062 28.57226562 C15.80626971 31.17617747 12.66249693 31.44905119 8.10742188 31.45507812 C6.71233398 31.45701172 6.71233398 31.45701172 5.2890625 31.45898438 C4.32548828 31.45511719 3.36191406 31.45125 2.36914062 31.44726562 C0.90637695 31.45306641 0.90637695 31.45306641 -0.5859375 31.45898438 C-1.51212891 31.45769531 -2.43832031 31.45640625 -3.39257812 31.45507812 C-4.24166748 31.4539502 -5.09075684 31.45282227 -5.96557617 31.45166016 C-7.94335938 31.32226562 -7.94335938 31.32226562 -8.94335938 30.32226562 C-9.19751487 25.68211237 -9.12858735 21.03105256 -9.13085938 16.38476562 C-9.14310547 15.07056641 -9.15535156 13.75636719 -9.16796875 12.40234375 C-9.17086914 10.52385742 -9.17086914 10.52385742 -9.17382812 8.60742188 C-9.17793701 7.45121338 -9.1820459 6.29500488 -9.1862793 5.10375977 C-8.67327086 -0.77031569 -4.78829573 0.03927759 0 0 Z " fill="#101110" transform="translate(487.943359375,489.677734375)"/>
<path d="M0 0 C1.04220703 -0.02900391 2.08441406 -0.05800781 3.15820312 -0.08789062 C9.21575701 -0.13795305 13.12734888 0.04579938 17.8125 4.3125 C20.7805927 7.37451969 21.22265102 9.52601913 21.1875 13.75 C21.04977051 18.05978524 20.86946341 21.05173902 17.8125 24.3125 C12.25217761 28.01038431 6.99593122 27.72971079 0.5625 27.625 C-0.44296875 27.62822266 -1.4484375 27.63144531 -2.484375 27.63476562 C-9.92020354 27.57979646 -9.92020354 27.57979646 -12.1875 25.3125 C-12.43041992 22.89819336 -12.43041992 22.89819336 -12.41796875 19.90234375 C-12.41603516 18.83048828 -12.41410156 17.75863281 -12.41210938 16.65429688 C-12.39986328 15.53087891 -12.38761719 14.40746094 -12.375 13.25 C-12.37435547 12.12271484 -12.37371094 10.99542969 -12.37304688 9.83398438 C-12.31419819 -1.02686677 -10.38020442 0.09453738 0 0 Z " fill="#121312" transform="translate(491.1875,613.6875)"/>
<path d="M0 0 C0.99 0.33 1.98 0.66 3 1 C4.27441406 3.62036133 4.27441406 3.62036133 5.515625 7.08203125 C5.96164062 8.32404297 6.40765625 9.56605469 6.8671875 10.84570312 C7.09374023 11.49676025 7.32029297 12.14781738 7.55371094 12.81860352 C8.24569485 14.80017176 8.9611383 16.77207297 9.6796875 18.74414062 C10.126439 20.00209405 10.57179781 21.26054311 11.015625 22.51953125 C11.42071289 23.66526611 11.82580078 24.81100098 12.24316406 25.99145508 C12.9800858 28.92083786 13.13814579 30.25217932 12 33 C11 34 11 34 8.86694336 34.11352539 C7.49227905 34.10567017 7.49227905 34.10567017 6.08984375 34.09765625 C5.10048828 34.09443359 4.11113281 34.09121094 3.09179688 34.08789062 C2.05087891 34.07951172 1.00996094 34.07113281 -0.0625 34.0625 C-1.10728516 34.05798828 -2.15207031 34.05347656 -3.22851562 34.04882812 C-5.8190666 34.03699913 -8.40950559 34.02051689 -11 34 C-10.54938549 26.25326551 -7.79622868 19.65665227 -4.9375 12.5 C-4.46505859 11.29601562 -3.99261719 10.09203125 -3.50585938 8.8515625 C-2.34541442 5.89770261 -1.17662157 2.94744499 0 0 Z " fill="#101111" transform="translate(677,500)"/>
<path d="M0 0 C4.94594201 0.25985685 7.01897295 2.62652119 10.3125 6.125 C13.37651168 9.31967752 16.41640822 12.46534547 19.8125 15.3125 C23.84594249 18.79515727 27.72341115 22.43069257 31.5625 26.125 C32.20743408 26.72352783 32.85236816 27.32205566 33.5168457 27.9387207 C35.18267073 29.56477023 36.6869003 31.07722608 38 33 C37.90234375 35.9296875 37.90234375 35.9296875 37 38 C34.7824707 38.72949219 34.7824707 38.72949219 32 39 C29.77026367 37.55957031 29.77026367 37.55957031 27.48046875 35.328125 C26.61212402 34.49603516 25.7437793 33.66394531 24.84912109 32.80664062 C23.90891113 31.88044922 22.96870117 30.95425781 22 30 C20.9780361 29.02593229 19.95405986 28.05397209 18.92822266 27.08398438 C16.23667063 24.53087336 13.5798177 21.94502627 10.93676758 19.34179688 C9.84027922 18.2672284 8.73755738 17.198989 7.62915039 16.13671875 C6.00514547 14.57926558 4.40140046 13.0033082 2.80078125 11.421875 C2.30201981 10.95094421 1.80325836 10.48001343 1.28938293 9.99481201 C-0.0690918 8.62792969 -0.0690918 8.62792969 -2 6 C-1.7916551 1.7916551 -1.7916551 1.7916551 0 0 Z " fill="#4A321D" transform="translate(156,519)"/>
<path d="M0 0 C4.55555556 0.55555556 4.55555556 0.55555556 6 2 C6.10358779 3.52386231 6.13851138 5.05246986 6.14526367 6.57983398 C6.15164352 7.55431992 6.15802338 8.52880585 6.16459656 9.53282166 C6.16570938 10.59320145 6.1668222 11.65358124 6.16796875 12.74609375 C6.17129715 13.82754166 6.17462555 14.90898956 6.17805481 16.02320862 C6.18312877 18.31567966 6.18546299 20.60815812 6.18530273 22.90063477 C6.18748845 26.41890567 6.20563728 29.93686281 6.22460938 33.45507812 C6.22754328 35.67708225 6.22952809 37.89908788 6.23046875 40.12109375 C6.23765427 41.17944931 6.24483978 42.23780487 6.25224304 43.32823181 C6.24916641 44.3058699 6.24608978 45.283508 6.24291992 46.29077148 C6.24434494 47.15379379 6.24576996 48.0168161 6.24723816 48.9059906 C6 51 6 51 4 53 C1.375 53.125 1.375 53.125 -1 53 C-2.2125247 50.57495059 -2.13325424 49.01617206 -2.14526367 46.30664062 C-2.15164352 45.33223022 -2.15802338 44.35781982 -2.16459656 43.35388184 C-2.16570938 42.29866333 -2.1668222 41.24344482 -2.16796875 40.15625 C-2.17129715 39.07621704 -2.17462555 37.99618408 -2.17805481 36.88342285 C-2.18312375 34.59692817 -2.18546315 32.31042608 -2.18530273 30.02392578 C-2.18749094 26.51452545 -2.20565192 23.00543848 -2.22460938 19.49609375 C-2.22754288 17.27864691 -2.22952796 15.06119858 -2.23046875 12.84375 C-2.23765427 11.78853149 -2.24483978 10.73331299 -2.25224304 9.64611816 C-2.24916641 8.67170776 -2.24608978 7.69729736 -2.24291992 6.69335938 C-2.24434494 5.83335327 -2.24576996 4.97334717 -2.24723816 4.08728027 C-2 2 -2 2 0 0 Z " fill="#4E361F" transform="translate(224,452)"/>
<path d="M0 0 C0.70125 0.268125 1.4025 0.53625 2.125 0.8125 C2.43683322 4.31339369 2.55668484 6.19475534 0.5078125 9.12670898 C-0.23726563 9.84673096 -0.98234375 10.56675293 -1.75 11.30859375 C-2.57113281 12.11490234 -3.39226562 12.92121094 -4.23828125 13.75195312 C-5.54345703 14.98848633 -5.54345703 14.98848633 -6.875 16.25 C-7.71417969 17.07048828 -8.55335938 17.89097656 -9.41796875 18.73632812 C-13.90940339 23.09893867 -18.5006958 27.31425864 -23.26293945 31.37939453 C-25.0428478 32.90761909 -25.0428478 32.90761909 -27.0625 35.25 C-28.875 36.8125 -28.875 36.8125 -31.5625 37.125 C-33.875 36.8125 -33.875 36.8125 -34.875 35.8125 C-35.27978516 33.625 -35.27978516 33.625 -34.875 30.8125 C-33.11115025 28.59951314 -31.42460567 26.75513971 -29.3984375 24.8125 C-28.83557037 24.25433594 -28.27270325 23.69617188 -27.69277954 23.12109375 C-25.88990636 21.33954953 -24.07017195 19.5763482 -22.25 17.8125 C-21.04708875 16.62610247 -19.84525317 15.43861325 -18.64453125 14.25 C-3.91532652 -0.25534738 -3.91532652 -0.25534738 0 0 Z " fill="#49311C" transform="translate(293.875,520.1875)"/>
<path d="M0 0 C0.33 0 0.66 0 1 0 C1.01030746 1.23805893 1.02061493 2.47611786 1.03123474 3.75169373 C1.12878746 15.39190429 1.23150384 27.03205923 1.33933926 38.67217922 C1.39461717 44.65716605 1.44804481 50.64215772 1.49731445 56.62719727 C1.54488636 62.39787773 1.59722629 68.16849668 1.65294075 73.93910408 C1.67339692 76.14601176 1.69210447 78.35293634 1.70907402 80.55987358 C1.73304608 83.63950616 1.7631101 86.71902126 1.79467773 89.79858398 C1.8004332 90.72071182 1.80618866 91.64283966 1.81211853 92.59291077 C1.4558931 96.61754436 1.4558931 96.61754436 3 100 C8.94 100 14.88 100 21 100 C21.33 79.21 21.66 58.42 22 37 C26.00121795 39.00060898 26.9076716 39.84539842 29.3125 43.359375 C29.91320312 44.22820313 30.51390625 45.09703125 31.1328125 45.9921875 C31.74898437 46.90226563 32.36515625 47.81234375 33 48.75 C33.92425781 50.09191406 33.92425781 50.09191406 34.8671875 51.4609375 C36.05806329 53.19358511 37.24196155 54.93105448 38.41796875 56.67382812 C39.37945923 58.08757524 40.35715775 59.49070814 41.36328125 60.87304688 C42.5 62.453125 42.5 62.453125 44 65 C43.505 66.485 43.505 66.485 43 68 C42.63237549 67.46109131 42.26475098 66.92218262 41.88598633 66.36694336 C40.195604 63.88992907 38.50405996 61.41371021 36.8125 58.9375 C36.23435547 58.08994141 35.65621094 57.24238281 35.06054688 56.36914062 C34.49013672 55.53447266 33.91972656 54.69980469 33.33203125 53.83984375 C32.81358643 53.08050537 32.2951416 52.32116699 31.76098633 51.53881836 C29.53929785 48.33580456 27.27084904 45.1683509 25 42 C24.99635437 42.7052179 24.99270874 43.41043579 24.98895264 44.13702393 C24.95106327 50.78774598 24.89420061 57.43800468 24.81609726 64.08838272 C24.7766116 67.5073461 24.74442901 70.92605154 24.72900391 74.34521484 C24.71094309 78.27735371 24.66099649 82.20877765 24.609375 86.140625 C24.60814636 87.36678528 24.60691772 88.59294556 24.60565186 89.85626221 C24.57607391 91.56758331 24.57607391 91.56758331 24.54589844 93.31347656 C24.53701599 94.31719299 24.52813354 95.32090942 24.51898193 96.3550415 C23.85526285 99.7376437 22.71708249 100.93081457 20 103 C17.17367345 103.37389945 14.80976072 103.51639727 12 103.4375 C11.2884375 103.44458984 10.576875 103.45167969 9.84375 103.45898438 C6.95361168 103.42393606 4.46845033 103.19793105 1.79400635 102.06791687 C-1.1730115 98.64789203 -0.52214015 94.85264494 -0.45410156 90.47973633 C-0.45468567 89.50394119 -0.45526978 88.52814606 -0.45587158 87.52278137 C-0.45308122 84.2921715 -0.4219436 81.06248026 -0.390625 77.83203125 C-0.38316602 75.59429936 -0.37747147 73.35656094 -0.37347412 71.11882019 C-0.35819093 65.22496553 -0.3188856 59.33150425 -0.2746582 53.43780518 C-0.2337636 47.4253878 -0.21547551 41.41290695 -0.1953125 35.40039062 C-0.15239425 23.60008744 -0.08411018 11.80007641 0 0 Z " fill="#080C09" transform="translate(741,472)"/>
<path d="M0 0 C0.33 0 0.66 0 1 0 C1.33 28.71 1.66 57.42 2 87 C20.48 87 38.96 87 58 87 C58 82.38 58 77.76 58 73 C56.34230591 73.02356567 56.34230591 73.02356567 54.65112305 73.04760742 C50.55305259 73.10188557 46.45501393 73.13634224 42.35668945 73.16479492 C40.58254657 73.17988641 38.80844102 73.20036191 37.03442383 73.22631836 C34.48509513 73.26268641 31.93625941 73.27972238 29.38671875 73.29296875 C28.59287277 73.30845261 27.79902679 73.32393646 26.98112488 73.33988953 C21.52907967 73.34155776 21.52907967 73.34155776 18.99414062 71.70507812 C17.29130815 68.78450297 17.69324227 65.58750074 17.8125 62.3125 C17.83280273 61.2596582 17.83280273 61.2596582 17.85351562 60.18554688 C17.88879818 58.45670171 17.94260417 56.72825235 18 55 C18.33 55 18.66 55 19 55 C19.07347656 56.48113281 19.07347656 56.48113281 19.1484375 57.9921875 C19.22320313 59.27351563 19.29796875 60.55484375 19.375 61.875 C19.44460938 63.15117187 19.51421875 64.42734375 19.5859375 65.7421875 C19.67241106 69.08061699 19.67241106 69.08061699 22 71 C24.78076793 71.23353407 27.4694951 71.34946871 30.25390625 71.37890625 C31.06995834 71.39590073 31.88601044 71.4128952 32.72679138 71.43040466 C35.33861527 71.48363072 37.95042244 71.52387896 40.5625 71.5625 C43.17806692 71.60636846 45.79350781 71.65301909 48.40892029 71.70530701 C50.03810706 71.73736275 51.66740551 71.76422172 53.29676819 71.78553772 C58.88826809 71.88826809 58.88826809 71.88826809 60 73 C60.09975032 75.51136104 60.13882183 77.98903415 60.125 80.5 C60.13080078 81.55380859 60.13080078 81.55380859 60.13671875 82.62890625 C60.12661378 87.87338622 60.12661378 87.87338622 59 89 C57.19490627 89.09899561 55.38593072 89.12799151 53.578125 89.12939453 C52.42022461 89.13254669 51.26232422 89.13569885 50.06933594 89.13894653 C48.17876465 89.13591019 48.17876465 89.13591019 46.25 89.1328125 C44.96641602 89.13376923 43.68283203 89.13472595 42.36035156 89.13571167 C39.63996176 89.13718831 36.91960475 89.13503519 34.19921875 89.13037109 C30.70515331 89.12467381 27.21116467 89.12795299 23.71710205 89.13394356 C20.39472847 89.13841754 17.07237577 89.13528885 13.75 89.1328125 C12.48961914 89.13483673 11.22923828 89.13686096 9.93066406 89.13894653 C8.77276367 89.13579437 7.61486328 89.13264221 6.421875 89.12939453 C5.39674805 89.12859894 4.37162109 89.12780334 3.31542969 89.12698364 C1 89 1 89 0 88 C-0.09516211 85.2611158 -0.12554594 82.54752059 -0.11352539 79.80834961 C-0.11367142 78.94988937 -0.11381744 78.09142914 -0.1139679 77.20695496 C-0.11326847 74.35539262 -0.1054747 71.50389475 -0.09765625 68.65234375 C-0.09579218 66.68079158 -0.09436822 64.70923895 -0.09336853 62.73768616 C-0.08954251 57.53773733 -0.07971152 52.33781625 -0.06866455 47.13787842 C-0.05845222 41.83606339 -0.05387129 36.5342439 -0.04882812 31.23242188 C-0.03808933 20.82160237 -0.02101191 10.41080349 0 0 Z " fill="#69AC4A" transform="translate(637,358)"/>
<path d="M0 0 C0.80244141 0.00966797 1.60488281 0.01933594 2.43164062 0.02929688 C3.26501953 0.05443359 4.09839844 0.07957031 4.95703125 0.10546875 C6.22450195 0.12577148 6.22450195 0.12577148 7.51757812 0.14648438 C9.60183509 0.18181076 11.68576402 0.23561736 13.76953125 0.29296875 C13.76953125 0.62296875 13.76953125 0.95296875 13.76953125 1.29296875 C11.94615234 1.38384766 11.94615234 1.38384766 10.0859375 1.4765625 C8.50128897 1.56095207 6.91665423 1.64560085 5.33203125 1.73046875 C4.52958984 1.76978516 3.72714844 1.80910156 2.90039062 1.84960938 C-0.98286436 1.69839835 -0.98286436 1.69839835 -4.23046875 3.29296875 C-4.35410172 5.25584641 -4.40842315 7.22312033 -4.43579102 9.18969727 C-4.45573624 10.45092911 -4.47568146 11.71216095 -4.49623108 13.01161194 C-4.5132167 14.39836502 -4.53009546 15.78511941 -4.546875 17.171875 C-4.56743801 18.58292765 -4.5884343 19.99397404 -4.60984802 21.40501404 C-4.6651363 25.12530465 -4.71451561 28.84565148 -4.76269531 32.56604004 C-4.81286117 36.359833 -4.86857283 40.15354398 -4.92382812 43.94726562 C-5.03149226 51.39576398 -5.13291872 58.84433034 -5.23046875 66.29296875 C-8.28146803 64.85329211 -9.86085019 63.83388952 -11.68359375 60.96875 C-12.13025391 60.28071289 -12.57691406 59.59267578 -13.03710938 58.88378906 C-13.51341797 58.13194336 -13.98972656 57.38009766 -14.48046875 56.60546875 C-15.53537321 54.98021887 -16.5927997 53.35660402 -17.65234375 51.734375 C-18.50602539 50.42557373 -18.50602539 50.42557373 -19.37695312 49.09033203 C-22.7404573 44.01406348 -26.23977339 39.03223925 -29.73046875 34.04296875 C-37.83317188 22.45824664 -37.83317188 22.45824664 -41.23046875 17.29296875 C-40.90046875 16.63296875 -40.57046875 15.97296875 -40.23046875 15.29296875 C-28.19698457 31.04122308 -28.19698457 31.04122308 -23.33569336 38.98754883 C-20.49601461 43.44613755 -17.50205588 47.79267276 -14.5078125 52.1484375 C-13.90384644 53.02898804 -13.29988037 53.90953857 -12.6776123 54.81677246 C-11.19625034 56.97620717 -9.71384267 59.13491584 -8.23046875 61.29296875 C-8.22460251 60.57300217 -8.21873627 59.85303558 -8.21269226 59.11125183 C-8.15480012 52.32783849 -8.08274361 45.54470777 -7.99475384 38.76162243 C-7.95001667 35.27429195 -7.91076843 31.78707918 -7.8840332 28.29956055 C-7.85306024 24.29055088 -7.79827059 20.28217508 -7.7421875 16.2734375 C-7.73260262 14.39364449 -7.73260262 14.39364449 -7.7228241 12.47587585 C-7.70302994 11.31489883 -7.68323578 10.15392181 -7.6628418 8.95776367 C-7.65173874 7.93406174 -7.64063568 6.9103598 -7.62919617 5.8556366 C-7.23046875 3.29296875 -7.23046875 3.29296875 -5.82800293 1.46020508 C-3.76086771 -0.05014465 -2.54264712 -0.05409887 0 0 Z " fill="#06090B" transform="translate(814.23046875,468.70703125)"/>
<path d="M0 0 C2.93804996 -0.08086376 5.87388075 -0.1404283 8.8125 -0.1875 C9.64587891 -0.21263672 10.47925781 -0.23777344 11.33789062 -0.26367188 C12.54155273 -0.27817383 12.54155273 -0.27817383 13.76953125 -0.29296875 C14.87711792 -0.31653442 14.87711792 -0.31653442 16.00708008 -0.34057617 C18.72878914 0.124545 19.38479845 0.74386331 21 3 C21.30950609 5.63754711 21.43751167 8.04437452 21.43237305 10.68432617 C21.4425647 11.4650499 21.45275635 12.24577362 21.46325684 13.05015564 C21.49345529 15.63116569 21.50266305 18.21180504 21.51171875 20.79296875 C21.52856039 22.58231344 21.54670993 24.37164626 21.56611633 26.16096497 C21.6136785 30.87092378 21.64344757 35.58083449 21.66955566 40.29095459 C21.70456456 45.94203383 21.76159489 51.59292825 21.81494904 57.24385834 C21.89353584 65.82921576 21.94408614 74.41433005 22 83 C41.305 83.495 41.305 83.495 61 84 C61 84.33 61 84.66 61 85 C55.17928378 85.02464638 49.35859766 85.0428343 43.5378418 85.05493164 C41.55606559 85.05997267 39.57429311 85.06680538 37.5925293 85.07543945 C34.75047891 85.08751515 31.90847753 85.09323045 29.06640625 85.09765625 C27.72891075 85.10539818 27.72891075 85.10539818 26.36439514 85.11329651 C24.24259399 85.11349177 22.1208922 85.0621003 20 85 C18.25707823 83.25707823 18.88019697 80.99376505 18.87557983 78.67175293 C18.87917511 77.90858765 18.88277039 77.14542236 18.88647461 76.35913086 C18.88632858 75.55919205 18.88618256 74.75925323 18.8860321 73.93507385 C18.88673145 71.27830335 18.89452482 68.62160207 18.90234375 65.96484375 C18.90420785 64.12781309 18.90563179 62.29078194 18.90663147 60.45375061 C18.91045725 55.60890338 18.92028804 50.76408592 18.93133545 45.91925049 C18.94154828 40.97937422 18.94612881 36.03949315 18.95117188 31.09960938 C18.96191026 21.39972437 18.97950754 11.69986931 19 2 C12.73 1.67 6.46 1.34 0 1 C0 0.67 0 0.34 0 0 Z " fill="#040307" transform="translate(553,469)"/>
<path d="M0 0 C1.16100805 1.12582599 2.31324175 2.26146776 3.43260193 3.42871094 C4.98445873 5.03958945 4.98445873 5.03958945 6.79408264 6.45410156 C10.75223446 10.06876726 12.39095044 13.10157685 12.74294186 18.5176239 C12.83565112 22.26598398 12.77240994 26.00218535 12.68359375 29.75 C12.67052032 31.37522235 12.66056439 33.0004725 12.65357971 34.62573242 C12.62699026 38.88105897 12.55835111 43.13468403 12.48065186 47.38934326 C12.40874269 51.73979683 12.37700953 56.0905283 12.34179688 60.44140625 C12.26696725 68.96171398 12.14766895 77.4806447 12 86 C9.05798331 83.17091557 6.83672454 79.99647143 4.5625 76.625 C2.37734891 73.39701963 0.18823533 70.22974363 -2.28515625 67.2109375 C-4 65 -4 65 -4 63 C-3.34 63 -2.68 63 -2 63 C-0.76318359 64.46875 -0.76318359 64.46875 0.6015625 66.5 C1.09140625 67.221875 1.58125 67.94375 2.0859375 68.6875 C2.84777344 69.8321875 2.84777344 69.8321875 3.625 71 C4.3984375 72.1446875 4.3984375 72.1446875 5.1875 73.3125 C6.46447818 75.20431952 7.73493968 77.10019898 9 79 C9.16266869 70.53300762 9.28680705 62.0666751 9.3626852 53.59850311 C9.39911599 49.66569061 9.44847336 45.7339522 9.52807617 41.80175781 C9.60450919 38.00207577 9.64606657 34.20342223 9.6641407 30.4030304 C9.67700904 28.95811277 9.70213935 27.5132473 9.7401104 26.06877136 C10.08277628 16.44341746 10.08277628 16.44341746 5.54711914 8.23632812 C4.92027725 7.66595825 4.29343536 7.09558838 3.64759827 6.50793457 C1.57483619 4.6108765 0.75461142 2.68306282 0 0 Z " fill="#422917" transform="translate(208,500)"/>
<path d="M0 0 C0.33 0 0.66 0 1 0 C2.05995228 4.31275198 2.13525775 8.49824799 2.11352539 12.91137695 C2.11367142 13.69239273 2.11381744 14.47340851 2.1139679 15.27809143 C2.1132737 17.84818339 2.10550446 20.41820202 2.09765625 22.98828125 C2.09579032 24.77475444 2.09436724 26.56122814 2.09336853 28.34770203 C2.08955716 33.04124371 2.07973867 37.73475427 2.06866455 42.42828369 C2.05842075 47.22106505 2.05386455 52.01385146 2.04882812 56.80664062 C2.03811514 66.20444073 2.02105531 75.60221777 2 85 C2.61415771 84.99419922 3.22831543 84.98839844 3.86108398 84.98242188 C5.07260132 84.9756543 5.07260132 84.9756543 6.30859375 84.96875 C7.10837646 84.96294922 7.90815918 84.95714844 8.73217773 84.95117188 C11.24826355 85.00534532 13.56414481 85.37139221 16 86 C16 86.33 16 86.66 16 87 C13.52076199 87.02685095 11.0418116 87.04676547 8.5625 87.0625 C7.85544922 87.07087891 7.14839844 87.07925781 6.41992188 87.08789062 C4.61306441 87.09653588 2.80612397 87.05220011 1 87 C-0.78857062 85.21142938 -0.11990579 82.79876866 -0.12442017 80.41790771 C-0.12082489 79.61733948 -0.11722961 78.81677124 -0.11352539 77.99194336 C-0.11367142 77.15299026 -0.11381744 76.31403717 -0.1139679 75.44966125 C-0.1132685 72.66302956 -0.10547485 69.87646384 -0.09765625 67.08984375 C-0.09579217 65.16313209 -0.09436822 63.23641995 -0.09336853 61.30970764 C-0.08954259 56.22812603 -0.07971166 51.1465728 -0.06866455 46.06500244 C-0.05845206 40.88383366 -0.05387126 35.70266031 -0.04882812 30.52148438 C-0.03808946 20.34764375 -0.02101213 10.17382423 0 0 Z " fill="#619C44" transform="translate(539,360)"/>
<path d="M0 0 C3.48571589 3.178847 5.87280852 6.75719494 8.3125 10.75 C11.42131562 15.72876045 14.65497633 20.25298406 18.6875 24.546875 C21.36524738 27.51152389 21.12650482 29.88983395 21.12939453 33.77563477 C21.13254669 34.9877211 21.13569885 36.19980743 21.13894653 37.44862366 C21.1369223 38.76624191 21.13489807 40.08386017 21.1328125 41.44140625 C21.13348637 42.80704262 21.13445708 44.17267886 21.13571167 45.53831482 C21.13718822 48.40747209 21.13503778 51.27659829 21.13037109 54.14575195 C21.1247115 57.80154469 21.12792893 61.45726339 21.13394356 65.11305332 C21.13758266 67.93827354 21.13639466 70.76347666 21.13381577 73.58869743 C21.1328339 75.58538232 21.13584572 77.58206789 21.13894653 79.57875061 C21.12219247 86.13839551 20.8875221 92.49870231 20 99 C19.67 99 19.34 99 19 99 C19.00523682 98.11796402 19.01047363 97.23592804 19.01586914 96.3271637 C19.05827746 87.98557402 19.06209717 79.64502961 19.02334595 71.30340672 C19.00476647 67.01546614 19.00073486 62.72857137 19.03076172 58.44067383 C19.05923099 54.29683984 19.04842561 50.15474576 19.01119995 46.01099968 C19.00379424 44.43589564 19.01017552 42.86066026 19.03103638 41.28567696 C19.24507955 30.71926119 19.24507955 30.71926119 14.12304688 21.72998047 C12.75151605 20.48354562 11.37733157 19.24002193 10 18 C8.00002212 15.28211807 6.24387585 12.44976615 4.5 9.5625 C4.05914062 8.85673828 3.61828125 8.15097656 3.1640625 7.42382812 C0 2.27976999 0 2.27976999 0 0 Z " fill="#77AF4C" transform="translate(201,486)"/>
<path d="M0 0 C4.55555556 0.55555556 4.55555556 0.55555556 6 2 C6.10358779 3.52386231 6.13851138 5.05246986 6.14526367 6.57983398 C6.15164352 7.55431992 6.15802338 8.52880585 6.16459656 9.53282166 C6.16570938 10.59320145 6.1668222 11.65358124 6.16796875 12.74609375 C6.17129715 13.82754166 6.17462555 14.90898956 6.17805481 16.02320862 C6.18312877 18.31567966 6.18546299 20.60815812 6.18530273 22.90063477 C6.18748845 26.41890567 6.20563728 29.93686281 6.22460938 33.45507812 C6.22754328 35.67708225 6.22952809 37.89908788 6.23046875 40.12109375 C6.23765427 41.17944931 6.24483978 42.23780487 6.25224304 43.32823181 C6.24916641 44.3058699 6.24608978 45.283508 6.24291992 46.29077148 C6.24434494 47.15379379 6.24576996 48.0168161 6.24723816 48.9059906 C6 51 6 51 4 53 C1.375 53.125 1.375 53.125 -1 53 C-2.2125247 50.57495059 -2.13325424 49.01617206 -2.14526367 46.30664062 C-2.15164352 45.33223022 -2.15802338 44.35781982 -2.16459656 43.35388184 C-2.16570938 42.29866333 -2.1668222 41.24344482 -2.16796875 40.15625 C-2.17129715 39.07621704 -2.17462555 37.99618408 -2.17805481 36.88342285 C-2.18312375 34.59692817 -2.18546315 32.31042608 -2.18530273 30.02392578 C-2.18749094 26.51452545 -2.20565192 23.00543848 -2.22460938 19.49609375 C-2.22754288 17.27864691 -2.22952796 15.06119858 -2.23046875 12.84375 C-2.23765427 11.78853149 -2.24483978 10.73331299 -2.25224304 9.64611816 C-2.24916641 8.67170776 -2.24608978 7.69729736 -2.24291992 6.69335938 C-2.24434494 5.83335327 -2.24576996 4.97334717 -2.24723816 4.08728027 C-2 2 -2 2 0 0 Z M0 2 C-1.21004832 2.98966726 -1.21004832 2.98966726 -1.12025452 4.90455627 C-1.11803391 5.73728561 -1.11581329 6.57001495 -1.11352539 7.42797852 C-1.11344986 8.36887833 -1.11337433 9.30977814 -1.11329651 10.27919006 C-1.10813522 11.30209641 -1.10297394 12.32500275 -1.09765625 13.37890625 C-1.0962413 14.42070541 -1.09482635 15.46250458 -1.09336853 16.53587341 C-1.0877508 19.87811094 -1.0751953 23.22028257 -1.0625 26.5625 C-1.05748728 28.82226466 -1.05292398 31.08203037 -1.04882812 33.34179688 C-1.03777561 38.89455391 -1.02102024 44.44727225 -1 50 C0.65 50.33 2.3 50.66 4 51 C4 35.16 4 19.32 4 3 C2.68 2.67 1.36 2.34 0 2 Z " fill="#432617" transform="translate(224,452)"/>
<path d="M0 0 C1.04220703 -0.02900391 2.08441406 -0.05800781 3.15820312 -0.08789062 C9.21575701 -0.13795305 13.12734888 0.04579938 17.8125 4.3125 C20.15062188 6.68493394 20.75644817 7.77739183 21.10546875 11.109375 C21.07066406 12.08390625 21.03585937 13.0584375 21 14.0625 C20.95939453 15.53976562 20.95939453 15.53976562 20.91796875 17.046875 C20.88316406 17.79453125 20.84835937 18.5421875 20.8125 19.3125 C19.8225 19.8075 19.8225 19.8075 18.8125 20.3125 C18.80992187 19.42046875 18.80734375 18.5284375 18.8046875 17.609375 C18.76601563 16.43890625 18.72734375 15.2684375 18.6875 14.0625 C18.66429687 12.90234375 18.64109375 11.7421875 18.6171875 10.546875 C18.0649288 7.16714855 18.0649288 7.16714855 15.46875 4.90625 C10.37387312 2.68540623 5.9257039 2.87837961 0.4375 3.0625 C-0.58472656 3.08054687 -1.60695313 3.09859375 -2.66015625 3.1171875 C-5.16967698 3.16409443 -7.67871217 3.23583076 -10.1875 3.3125 C-10.1875 10.2425 -10.1875 17.1725 -10.1875 24.3125 C-3.9175 24.6425 2.3525 24.9725 8.8125 25.3125 C8.8125 25.6425 8.8125 25.9725 8.8125 26.3125 C5.50001813 26.34138146 2.18756833 26.35925799 -1.125 26.375 C-2.07052734 26.38337891 -3.01605469 26.39175781 -3.99023438 26.40039062 C-5.33891602 26.40522461 -5.33891602 26.40522461 -6.71484375 26.41015625 C-7.96382446 26.41801147 -7.96382446 26.41801147 -9.23803711 26.42602539 C-11.1875 26.3125 -11.1875 26.3125 -12.1875 25.3125 C-12.28696453 23.54390807 -12.31830217 21.77138549 -12.3203125 20 C-12.32160156 18.92492187 -12.32289063 17.84984375 -12.32421875 16.7421875 C-12.31841797 15.04449219 -12.31841797 15.04449219 -12.3125 13.3125 C-12.31636719 12.18070313 -12.32023437 11.04890625 -12.32421875 9.8828125 C-12.32292969 8.80773437 -12.32164062 7.73265625 -12.3203125 6.625 C-12.31918457 5.63113281 -12.31805664 4.63726563 -12.31689453 3.61328125 C-12.00192809 -1.98717858 -4.30681033 0.03922414 0 0 Z " fill="#050808" transform="translate(491.1875,613.6875)"/>
<path d="M0 0 C0.33 0 0.66 0 1 0 C1.04898438 0.98742187 1.09796875 1.97484375 1.1484375 2.9921875 C1.22320313 4.27351563 1.29796875 5.55484375 1.375 6.875 C1.44460938 8.15117187 1.51421875 9.42734375 1.5859375 10.7421875 C1.67241106 14.08061699 1.67241106 14.08061699 4 16 C6.78076793 16.23353407 9.4694951 16.34946871 12.25390625 16.37890625 C13.06995834 16.39590073 13.88601044 16.4128952 14.72679138 16.43040466 C17.33861527 16.48363072 19.95042244 16.52387896 22.5625 16.5625 C25.17806692 16.60636846 27.79350781 16.65301909 30.40892029 16.70530701 C32.03810706 16.73736275 33.66740551 16.76422172 35.29676819 16.78553772 C40.88826809 16.88826809 40.88826809 16.88826809 42 18 C42.07313567 20.53049402 42.09247527 23.03304837 42.0625 25.5625 C42.05798828 26.27341797 42.05347656 26.98433594 42.04882812 27.71679688 C42.03700864 29.47790013 42.01907263 31.23896036 42 33 C38.71377082 34.64311459 35.09273349 33.99748737 31.4921875 33.87890625 C30.65156769 33.85529526 29.81094788 33.83168427 28.94485474 33.80735779 C26.2547338 33.73066362 23.5648966 33.64666417 20.875 33.5625 C19.05339939 33.50928506 17.23178486 33.45654463 15.41015625 33.40429688 C10.93992382 33.27504071 6.4699324 33.13923154 2 33 C2 32.67 2 32.34 2 32 C14.54 32 27.08 32 40 32 C40 27.38 40 22.76 40 18 C38.89487061 18.01571045 37.78974121 18.0314209 36.65112305 18.04760742 C32.55305259 18.10188557 28.45501393 18.13634224 24.35668945 18.16479492 C22.58254657 18.17988641 20.80844102 18.20036191 19.03442383 18.22631836 C16.48509513 18.26268641 13.93625941 18.27972238 11.38671875 18.29296875 C10.59287277 18.30845261 9.79902679 18.32393646 8.98112488 18.33988953 C3.52907967 18.34155776 3.52907967 18.34155776 0.99414062 16.70507812 C-0.70869185 13.78450297 -0.30675773 10.58750074 -0.1875 7.3125 C-0.17396484 6.61060547 -0.16042969 5.90871094 -0.14648438 5.18554688 C-0.11120182 3.45670171 -0.05739583 1.72825235 0 0 Z " fill="#629F43" transform="translate(655,413)"/>
<path d="M0 0 C0.99 0.33 1.98 0.66 3 1 C3 20.47 3 39.94 3 60 C2.34 60 1.68 60 1 60 C0.98969254 59.30508957 0.97938507 58.61017914 0.96876526 57.89421082 C0.87080081 51.34637933 0.76828783 44.79863672 0.66066074 38.25095654 C0.60548878 34.88470387 0.55207803 31.51844243 0.50268555 28.15209961 C0.44503363 24.28230386 0.38132432 20.41264856 0.31640625 16.54296875 C0.29969376 15.33352097 0.28298126 14.12407318 0.26576233 12.87797546 C0.24581711 11.75703995 0.22587189 10.63610443 0.20532227 9.48120117 C0.18977798 8.49302902 0.1742337 7.50485687 0.15821838 6.48674011 C0.09786217 3.86800044 0.09786217 3.86800044 -1 1 C-0.67 0.67 -0.34 0.34 0 0 Z " fill="#162616" transform="translate(863,634)"/>
<path d="M0 0 C15.98041038 4.09754112 30.1338224 19.71765379 39 33 C39.796875 35.41015625 39.796875 35.41015625 40 37 C36.93614561 34.12183376 34.33229999 31.18019477 31.8125 27.8125 C23.52752998 17.06876468 13.7647845 9.13552326 2.11328125 2.30859375 C1.41589844 1.87675781 0.71851563 1.44492187 0 1 C0 0.67 0 0.34 0 0 Z " fill="#3F2A16" transform="translate(154,482)"/>
<path d="M0 0 C2.85241776 1.42620888 3.3309608 3.54213617 4.35791016 6.4375 C5.63667619 11.54089478 5.58253638 16.76381477 5.6875 22 C5.73874023 23.73443359 5.73874023 23.73443359 5.79101562 25.50390625 C5.87293108 28.33584046 5.94226522 31.16748701 6 34 C5.01 33.34 4.02 32.68 3 32 C2.59936523 29.91210938 2.59936523 29.91210938 2.55859375 27.34375 C2.53216797 26.40273438 2.50574219 25.46171875 2.47851562 24.4921875 C2.46498047 23.50476563 2.45144531 22.51734375 2.4375 21.5 C2.30292371 14.10328844 1.70732743 7.21244625 0 0 Z " fill="#432F19" transform="translate(215,607)"/>
<path d="M0 0 C3.006818 1.33999498 4.99762609 2.79845291 7.25 5.1875 C9.64051309 7.65382217 12.06840583 9.96589829 14.6875 12.1875 C20.43565433 17.13068597 25.68294744 22.60319165 31 28 C30.67 28.66 30.34 29.32 30 30 C29.2265625 29.21496094 28.453125 28.42992187 27.65625 27.62109375 C22.5843076 22.49688013 17.51374384 17.47637661 12.0234375 12.796875 C7.82805166 9.07124279 3.83135906 5.09829801 0 1 C0 0.67 0 0.34 0 0 Z " fill="#402C17" transform="translate(161,522)"/>
<path d="M0 0 C3 1 3 1 3.984375 2.70703125 C4.23703125 3.40183594 4.4896875 4.09664063 4.75 4.8125 C5.01296875 5.49957031 5.2759375 6.18664062 5.546875 6.89453125 C6 9 6 9 5 13 C4.01 10.36 3.02 7.72 2 5 C-0.46440486 8.8726362 -2.25807076 12.76960042 -4 17 C-5.6852084 12.92320841 -4.16939007 10.16924407 -2.5625 6.25 C-2.08941406 5.07953125 -1.61632812 3.9090625 -1.12890625 2.703125 C-0.75636719 1.81109375 -0.38382813 0.9190625 0 0 Z " fill="#070C0B" transform="translate(677,500)"/>
<path d="M0 0 C0.33 0 0.66 0 1 0 C1 4.62 1 9.24 1 14 C2.381875 13.979375 3.76375 13.95875 5.1875 13.9375 C8.59298534 13.93212857 11.68414137 14.14429455 15 15 C15 15.33 15 15.66 15 16 C10.05 16 5.1 16 0 16 C-0.97504245 12.09983019 -0.94810969 9.69178796 -0.5625 5.75 C-0.46066406 4.67234375 -0.35882812 3.5946875 -0.25390625 2.484375 C-0.17011719 1.66453125 -0.08632813 0.8446875 0 0 Z " fill="#5D9742" transform="translate(540,431)"/>
<path d="M0 0 C3.57276904 1.51374725 5.85680371 3.61894388 8.5625 6.375 C9.32691406 7.14585937 10.09132812 7.91671875 10.87890625 8.7109375 C14.63161058 12.76081731 14.63161058 12.76081731 16 15 C15.67 15.99 15.34 16.98 15 18 C14.41992188 17.28714844 13.83984375 16.57429687 13.2421875 15.83984375 C8.88994416 10.50367741 4.50986567 5.20369116 0 0 Z " fill="#7AB04E" transform="translate(173,497)"/>
<path d="M0 0 C0 4.2650016 -2.44473414 6.50032379 -5 9.6875 C-5.71542969 10.59725586 -5.71542969 10.59725586 -6.4453125 11.52539062 C-7.62376394 13.02202396 -8.81105188 14.51169173 -10 16 C-10 12.22889411 -8.86672657 11.0319674 -6.6875 8 C-5.76517578 6.700625 -5.76517578 6.700625 -4.82421875 5.375 C-3.31351993 3.40818012 -1.80653533 1.68980535 0 0 Z " fill="#3F2715" transform="translate(258,569)"/>
<path d="M0 0 C0.63671875 1.8046875 0.63671875 1.8046875 1 4 C-1.57856327 7.68366181 -3.6875406 10.40279281 -8 12 C-6.59023295 8.96147295 -4.91129772 6.4060405 -2.875 3.75 C-2.06675781 2.69039063 -2.06675781 2.69039063 -1.2421875 1.609375 C-0.83226562 1.07828125 -0.42234375 0.5471875 0 0 Z " fill="#432A18" transform="translate(245,497)"/>
<path d="M0 0 C0.33 0.99 0.66 1.98 1 3 C-0.59576199 4.50893816 -2.20189911 6.00691076 -3.8125 7.5 C-4.70582031 8.3353125 -5.59914063 9.170625 -6.51953125 10.03125 C-9 12 -9 12 -12 12 C-8.04 8.04 -4.08 4.08 0 0 Z " fill="#7CB54F" transform="translate(295,527)"/>
<path d="M0 0 C1.1446875 0.3403125 1.1446875 0.3403125 2.3125 0.6875 C2.3125 2.3375 2.3125 3.9875 2.3125 5.6875 C0.9925 4.3675 -0.3275 3.0475 -1.6875 1.6875 C-4.6575 4.1625 -4.6575 4.1625 -7.6875 6.6875 C-4.45731707 -0.51829268 -4.45731707 -0.51829268 0 0 Z " fill="#3A2013" transform="translate(293.6875,520.3125)"/>
<path d="M0 0 C0.68359375 1.734375 0.68359375 1.734375 1 4 C-0.21484375 6.140625 -0.21484375 6.140625 -1.9375 8.25 C-2.50339844 8.95640625 -3.06929687 9.6628125 -3.65234375 10.390625 C-4.31943359 11.18726563 -4.31943359 11.18726563 -5 12 C-5.33 11.34 -5.66 10.68 -6 10 C-4.78515625 7.6171875 -4.78515625 7.6171875 -3.0625 4.875 C-2.21365234 3.50988281 -2.21365234 3.50988281 -1.34765625 2.1171875 C-0.90292969 1.41851563 -0.45820312 0.71984375 0 0 Z " fill="#070B0B" transform="translate(861,636)"/>
<path d="M0 0 C1.56901337 1.9969261 2.90903763 3.79381863 3.9375 6.125 C5.25850004 8.45617654 6.55370439 9.02148176 9 10 C7.35 10.33 5.7 10.66 4 11 C3.32591692 9.73308493 2.66099503 8.46129251 2 7.1875 C1.62875 6.47980469 1.2575 5.77210938 0.875 5.04296875 C0 3 0 3 0 0 Z " fill="#5A9343" transform="translate(703,562)"/>
<path d="M0 0 C0.66 0.33 1.32 0.66 2 1 C-0.31537955 4.72114571 -2.28579473 7.61229661 -6 10 C-4.6302836 6.00499382 -2.74277578 3.19990508 0 0 Z " fill="#78AE4C" transform="translate(215,400)"/>
<path d="M0 0 C0.66 0.33 1.32 0.66 2 1 C1.01 2.98 0.02 4.96 -1 7 C-1.99 7 -2.98 7 -4 7 C-2.68 4.69 -1.36 2.38 0 0 Z " fill="#76AA4A" transform="translate(262,514)"/>
</svg>
